<svg width="1330" height="411" viewBox="0 0 1330 411" fill="none" xmlns="http://www.w3.org/2000/svg">
<path d="M214.693 86C255.562 86 288.693 66.7482 288.693 43C288.693 19.2518 255.562 0 214.693 0C173.824 0 140.693 19.2518 140.693 43C140.693 66.7482 173.824 86 214.693 86Z" fill="white"/>
<path d="M214.693 410.1C255.562 410.1 288.693 390.848 288.693 367.1C288.693 343.352 255.562 324.1 214.693 324.1C173.824 324.1 140.693 343.352 140.693 367.1C140.693 390.848 173.824 410.1 214.693 410.1Z" fill="white"/>
<path d="M111.503 145.58C131.938 110.188 131.831 71.8706 111.265 59.9964C90.6994 48.1223 57.4619 67.1878 37.0273 102.58C16.5928 137.973 16.6994 176.29 37.2653 188.164C57.8313 200.039 91.0688 180.973 111.503 145.58Z" fill="#55C455"/>
<path d="M392.281 307.65C412.716 272.257 412.609 233.94 392.043 222.066C371.477 210.192 338.24 229.257 317.805 264.65C297.371 300.043 297.477 338.36 318.043 350.234C338.609 362.108 371.847 343.043 392.281 307.65Z" fill="#55C455"/>
<path d="M111.238 350.148C131.804 338.274 131.911 299.957 111.476 264.564C91.0415 229.172 57.804 210.106 37.238 221.98C16.672 233.855 16.5655 272.172 37 307.564C57.4345 342.957 90.672 362.023 111.238 350.148Z" fill="#E6007A"/>
<path d="M392.024 188.033C412.59 176.158 412.697 137.841 392.262 102.449C371.828 67.0559 338.59 47.9904 318.024 59.8645C297.458 71.7386 297.352 110.056 317.786 145.449C338.221 180.841 371.458 199.907 392.024 188.033Z" fill="#E6007A"/>
<path d="M557.844 83.663C566.879 83.663 574.733 85.2543 581.406 88.437C588.131 91.6196 593.29 96.1113 596.883 101.912C600.476 107.661 602.273 114.309 602.273 121.855C602.273 129.401 600.476 136.049 596.883 141.798C593.29 147.547 588.131 152.013 581.406 155.196C574.681 158.379 566.827 159.97 557.844 159.97H520.961V199.163H494.858V83.663H557.844ZM556.458 138.41C562.515 138.41 567.238 136.947 570.626 134.021C574.065 131.095 575.785 127.04 575.785 121.855C575.785 116.67 574.065 112.615 570.626 109.689C567.238 106.712 562.515 105.223 556.458 105.223H520.961V138.41H556.458ZM663.519 201.473C652.739 201.473 643.191 199.548 634.875 195.698C626.611 191.848 620.194 186.458 615.625 179.528C611.057 172.547 608.772 164.513 608.772 155.427C608.772 146.29 611.057 138.23 615.625 131.249C620.194 124.268 626.611 118.852 634.875 115.002C643.191 111.152 652.739 109.227 663.519 109.227C674.299 109.227 683.822 111.152 692.086 115.002C700.402 118.852 706.845 124.268 711.413 131.249C715.982 138.23 718.266 146.29 718.266 155.427C718.266 164.513 715.982 172.547 711.413 179.528C706.845 186.458 700.402 191.848 692.086 195.698C683.822 199.548 674.299 201.473 663.519 201.473ZM634.798 155.427C634.798 160.868 635.953 165.591 638.263 169.595C640.573 173.548 643.884 176.602 648.196 178.758C652.508 180.914 657.616 181.992 663.519 181.992C669.423 181.992 674.505 180.914 678.765 178.758C683.077 176.602 686.388 173.548 688.698 169.595C691.008 165.591 692.163 160.868 692.163 155.427C692.163 149.986 691.008 145.263 688.698 141.259C686.388 137.255 683.077 134.175 678.765 132.019C674.453 129.863 669.371 128.785 663.519 128.785C657.616 128.785 652.508 129.863 648.196 132.019C643.884 134.175 640.573 137.255 638.263 141.259C635.953 145.263 634.798 149.986 634.798 155.427ZM758.895 80.583V199.163H733.1V80.583H758.895ZM778.217 80.583H804.012V166.515L848.826 111.614H876.931L846.362 147.188L879.395 199.163H849.904L829.961 166.207L801.625 199.163H778.217V80.583ZM962.019 179.451C957.656 186.432 952.138 191.848 945.464 195.698C938.842 199.548 931.476 201.473 923.365 201.473C914.895 201.473 907.349 199.548 900.727 195.698C894.105 191.848 888.946 186.432 885.25 179.451C881.606 172.47 879.783 164.462 879.783 155.427C879.783 146.341 881.606 138.307 885.25 131.326C888.946 124.293 894.08 118.852 900.65 115.002C907.272 111.152 914.844 109.227 923.365 109.227C931.476 109.227 938.842 111.152 945.464 115.002C952.138 118.801 957.682 124.191 962.096 131.172L964.329 111.614H990.971L985.889 155.35L990.971 199.163H964.329L962.019 179.451ZM905.886 155.427C905.886 160.458 906.939 164.949 909.043 168.902C911.148 172.855 914.048 175.935 917.744 178.142C921.492 180.349 925.727 181.453 930.449 181.453C935.223 181.453 939.766 180.349 944.078 178.142C948.39 175.935 952.163 172.88 955.397 168.979C958.683 165.026 961.249 160.509 963.097 155.427C961.249 150.345 958.683 145.828 955.397 141.875C952.163 137.922 948.39 134.842 944.078 132.635C939.766 130.376 935.223 129.247 930.449 129.247C925.727 129.247 921.492 130.376 917.744 132.635C914.048 134.842 911.148 137.948 909.043 141.952C906.939 145.905 905.886 150.396 905.886 155.427ZM1086.4 178.758C1081.99 185.945 1076.42 191.54 1069.69 195.544C1062.97 199.497 1055.5 201.473 1047.29 201.473C1038.82 201.473 1031.27 199.548 1024.65 195.698C1018.03 191.848 1012.87 186.432 1009.17 179.451C1005.53 172.47 1003.71 164.462 1003.71 155.427C1003.71 146.341 1005.53 138.307 1009.17 131.326C1012.87 124.293 1018 118.852 1024.57 115.002C1031.19 111.152 1038.77 109.227 1047.29 109.227C1055.5 109.227 1062.97 111.178 1069.69 115.079C1076.42 118.98 1081.96 124.499 1086.33 131.634L1092.02 80.583H1118.67L1110.2 153.579L1115.2 199.163H1088.71L1086.4 178.758ZM1029.81 155.427C1029.81 160.458 1030.86 164.949 1032.97 168.902C1035.07 172.855 1037.97 175.935 1041.67 178.142C1045.41 180.349 1049.65 181.453 1054.37 181.453C1059.15 181.453 1063.69 180.349 1068 178.142C1072.31 175.935 1076.09 172.88 1079.32 168.979C1082.6 165.026 1085.17 160.509 1087.02 155.427C1085.17 150.345 1082.6 145.828 1079.32 141.875C1076.09 137.922 1072.31 134.842 1068 132.635C1063.69 130.376 1059.15 129.247 1054.37 129.247C1049.65 129.247 1045.41 130.376 1041.67 132.635C1037.97 134.842 1035.07 137.948 1032.97 141.952C1030.86 145.905 1029.81 150.396 1029.81 155.427ZM1182.22 201.473C1171.44 201.473 1161.89 199.548 1153.57 195.698C1145.31 191.848 1138.89 186.458 1134.32 179.528C1129.75 172.547 1127.47 164.513 1127.47 155.427C1127.47 146.29 1129.75 138.23 1134.32 131.249C1138.89 124.268 1145.31 118.852 1153.57 115.002C1161.89 111.152 1171.44 109.227 1182.22 109.227C1193 109.227 1202.52 111.152 1210.78 115.002C1219.1 118.852 1225.54 124.268 1230.11 131.249C1234.68 138.23 1236.96 146.29 1236.96 155.427C1236.96 164.513 1234.68 172.547 1230.11 179.528C1225.54 186.458 1219.1 191.848 1210.78 195.698C1202.52 199.548 1193 201.473 1182.22 201.473ZM1153.5 155.427C1153.5 160.868 1154.65 165.591 1156.96 169.595C1159.27 173.548 1162.58 176.602 1166.89 178.758C1171.21 180.914 1176.31 181.992 1182.22 181.992C1188.12 181.992 1193.2 180.914 1197.46 178.758C1201.77 176.602 1205.09 173.548 1207.4 169.595C1209.71 165.591 1210.86 160.868 1210.86 155.427C1210.86 149.986 1209.71 145.263 1207.4 141.259C1205.09 137.255 1201.77 134.175 1197.46 132.019C1193.15 129.863 1188.07 128.785 1182.22 128.785C1176.31 128.785 1171.21 129.863 1166.89 132.019C1162.58 134.175 1159.27 137.255 1156.96 141.259C1154.65 145.263 1153.5 149.986 1153.5 155.427ZM1241.36 119.545L1259.61 113.539L1270.55 88.36H1285.33V111.614H1324.06V130.941H1285.33V162.742C1285.33 167.362 1285.95 171.007 1287.18 173.676C1288.41 176.345 1290.39 178.27 1293.11 179.451C1295.83 180.632 1299.55 181.222 1304.27 181.222C1308.59 181.222 1312.44 180.811 1315.82 179.99C1319.26 179.169 1322.52 177.937 1325.6 176.294V196.391C1322.42 197.777 1318.36 198.958 1313.44 199.933C1308.51 200.96 1303.55 201.473 1298.58 201.473C1285.33 201.473 1275.53 198.393 1269.16 192.233C1262.8 186.073 1259.61 177.475 1259.61 166.438V130.941H1241.36V119.545ZM580.02 340.163H561.015L553.56 323.573H509.88L502.425 340.163H483.42L520.223 261.413H543.218L580.02 340.163ZM547.05 309.083L531.72 275.115L516.443 309.083H547.05ZM631.18 296.378C635.24 296.378 638.425 295.45 640.735 293.595C643.08 291.74 644.252 289.185 644.252 285.93C644.252 282.675 643.08 280.12 640.735 278.265C638.425 276.41 635.24 275.483 631.18 275.483H606.295V296.378H631.18ZM588.497 261.413H633.332C639.037 261.413 644.077 262.445 648.452 264.51C652.827 266.54 656.222 269.41 658.637 273.12C661.052 276.83 662.26 281.1 662.26 285.93C662.26 290.06 661.35 293.788 659.53 297.113C657.71 300.438 655.12 303.185 651.76 305.355C648.435 307.525 644.532 308.978 640.052 309.713L664.622 340.163H643.727L619.997 310.238H606.295V340.163H588.497V261.413ZM740.755 307.613H695.29L692.455 325.358H744.01V340.163H673.083L679.225 300.788L673.083 261.413H743.485V276.218H692.455L695.29 293.963H740.755V307.613ZM757.584 261.413H780.684L824.364 320.055V261.413H841.637V340.163H819.114L774.857 280.47V340.163H757.584V261.413ZM946.7 340.163H927.695L920.24 323.573H876.56L869.105 340.163H850.1L886.902 261.413H909.897L946.7 340.163ZM913.73 309.083L898.4 275.115L883.122 309.083H913.73Z" fill="white"/>
<path d="M581.406 88.437L581.191 88.8883L581.192 88.8889L581.406 88.437ZM596.883 101.912L596.458 102.175L596.459 102.177L596.883 101.912ZM596.883 141.798L597.307 142.063L597.307 142.063L596.883 141.798ZM581.406 155.196L581.192 154.744L581.192 154.744L581.406 155.196ZM520.961 159.97V159.47H520.461V159.97H520.961ZM520.961 199.163V199.663H521.461V199.163H520.961ZM494.858 199.163H494.358V199.663H494.858V199.163ZM494.858 83.663V83.163H494.358V83.663H494.858ZM570.626 134.021L570.302 133.64L570.299 133.643L570.626 134.021ZM570.626 109.689L570.296 110.065L570.302 110.07L570.626 109.689ZM520.961 105.223V104.723H520.461V105.223H520.961ZM520.961 138.41H520.461V138.91H520.961V138.41ZM557.844 84.163C566.82 84.163 574.598 85.744 581.191 88.8883L581.621 87.9857C574.867 84.7646 566.937 83.163 557.844 83.163V84.163ZM581.192 88.8889C587.838 92.0342 592.92 96.4639 596.458 102.175L597.308 101.649C593.659 95.7587 588.423 91.205 581.62 87.985L581.192 88.8889ZM596.459 102.177C599.997 107.838 601.773 114.392 601.773 121.855H602.773C602.773 114.226 600.955 107.485 597.307 101.647L596.459 102.177ZM601.773 121.855C601.773 129.318 599.997 135.872 596.459 141.533L597.307 142.063C600.955 136.225 602.773 129.484 602.773 121.855H601.773ZM596.459 141.533C592.921 147.193 587.839 151.598 581.192 154.744L581.62 155.648C588.422 152.428 593.658 147.901 597.307 142.063L596.459 141.533ZM581.192 154.744C574.547 157.889 566.768 159.47 557.844 159.47V160.47C566.886 160.47 574.816 158.868 581.62 155.648L581.192 154.744ZM557.844 159.47H520.961V160.47H557.844V159.47ZM520.461 159.97V199.163H521.461V159.97H520.461ZM520.961 198.663H494.858V199.663H520.961V198.663ZM495.358 199.163V83.663H494.358V199.163H495.358ZM494.858 84.163H557.844V83.163H494.858V84.163ZM556.458 138.91C562.593 138.91 567.446 137.428 570.953 134.399L570.299 133.643C567.03 136.466 562.438 137.91 556.458 137.91V138.91ZM570.95 134.402C574.518 131.366 576.285 127.162 576.285 121.855H575.285C575.285 126.917 573.612 130.824 570.302 133.64L570.95 134.402ZM576.285 121.855C576.285 116.548 574.518 112.344 570.95 109.308L570.302 110.07C573.612 112.886 575.285 116.793 575.285 121.855H576.285ZM570.956 109.313C567.449 106.232 562.595 104.723 556.458 104.723V105.723C562.436 105.723 567.027 107.191 570.296 110.065L570.956 109.313ZM556.458 104.723H520.961V105.723H556.458V104.723ZM520.461 105.223V138.41H521.461V105.223H520.461ZM520.961 138.91H556.458V137.91H520.961V138.91ZM634.875 195.698L634.664 196.151L634.665 196.152L634.875 195.698ZM615.625 179.528L615.207 179.802L615.208 179.803L615.625 179.528ZM634.875 115.002L634.665 114.548L634.664 114.549L634.875 115.002ZM692.086 115.002L691.875 115.455L691.876 115.456L692.086 115.002ZM711.413 179.528L711.831 179.803L711.832 179.802L711.413 179.528ZM692.086 195.698L691.876 195.244L691.875 195.245L692.086 195.698ZM638.263 169.595L637.83 169.845L637.832 169.847L638.263 169.595ZM648.196 178.758L648.42 178.311L648.42 178.311L648.196 178.758ZM678.765 178.758L678.542 178.311L678.54 178.312L678.765 178.758ZM688.698 169.595L689.13 169.847L689.131 169.845L688.698 169.595ZM688.698 141.259L688.265 141.509L688.265 141.509L688.698 141.259ZM678.765 132.019L678.989 131.572L678.989 131.572L678.765 132.019ZM648.196 132.019L648.42 132.466L648.42 132.466L648.196 132.019ZM638.263 141.259L637.83 141.009L637.83 141.009L638.263 141.259ZM663.519 200.973C652.799 200.973 643.325 199.059 635.085 195.244L634.665 196.152C643.058 200.037 652.679 201.973 663.519 201.973V200.973ZM635.086 195.245C626.897 191.43 620.555 186.098 616.043 179.253L615.208 179.803C619.832 186.818 626.324 192.266 634.664 196.151L635.086 195.245ZM616.044 179.254C611.533 172.361 609.272 164.425 609.272 155.427H608.272C608.272 164.601 610.58 172.732 615.207 179.802L616.044 179.254ZM609.272 155.427C609.272 146.377 611.533 138.415 616.044 131.523L615.207 130.975C610.58 138.046 608.272 146.202 608.272 155.427H609.272ZM616.044 131.523C620.557 124.627 626.898 119.27 635.086 115.455L634.664 114.549C626.323 118.434 619.831 123.909 615.207 130.975L616.044 131.523ZM635.085 115.456C643.325 111.641 652.799 109.727 663.519 109.727V108.727C652.679 108.727 643.058 110.663 634.665 114.548L635.085 115.456ZM663.519 109.727C674.24 109.727 683.688 111.641 691.875 115.455L692.297 114.549C683.956 110.663 674.359 108.727 663.519 108.727V109.727ZM691.876 115.456C700.116 119.27 706.482 124.627 710.995 131.523L711.832 130.975C707.207 123.908 700.689 118.434 692.296 114.548L691.876 115.456ZM710.995 131.523C715.505 138.415 717.766 146.377 717.766 155.427H718.766C718.766 146.202 716.459 138.046 711.832 130.975L710.995 131.523ZM717.766 155.427C717.766 164.425 715.506 172.361 710.995 179.254L711.832 179.802C716.458 172.732 718.766 164.601 718.766 155.427H717.766ZM710.996 179.253C706.484 186.097 700.117 191.429 691.876 195.244L692.296 196.152C700.688 192.267 707.206 186.819 711.831 179.803L710.996 179.253ZM691.875 195.245C683.688 199.059 674.24 200.973 663.519 200.973V201.973C674.359 201.973 683.956 200.037 692.297 196.151L691.875 195.245ZM634.298 155.427C634.298 160.94 635.469 165.752 637.83 169.845L638.696 169.345C636.437 165.43 635.298 160.796 635.298 155.427H634.298ZM637.832 169.847C640.193 173.888 643.579 177.008 647.973 179.205L648.42 178.311C644.19 176.196 640.953 173.207 638.695 169.343L637.832 169.847ZM647.973 179.205C652.368 181.403 657.555 182.492 663.519 182.492V181.492C657.676 181.492 652.649 180.425 648.42 178.311L647.973 179.205ZM663.519 182.492C669.483 182.492 674.646 181.403 678.991 179.204L678.54 178.312C674.363 180.425 669.362 181.492 663.519 181.492V182.492ZM678.989 179.205C683.383 177.008 686.768 173.888 689.13 169.847L688.267 169.343C686.008 173.207 682.772 176.196 678.542 178.311L678.989 179.205ZM689.131 169.845C691.492 165.752 692.663 160.94 692.663 155.427H691.663C691.663 160.796 690.524 165.43 688.265 169.345L689.131 169.845ZM692.663 155.427C692.663 149.914 691.492 145.102 689.131 141.009L688.265 141.509C690.524 145.424 691.663 150.058 691.663 155.427H692.663ZM689.131 141.009C686.77 136.916 683.385 133.77 678.989 131.572L678.542 132.466C682.77 134.58 686.006 137.593 688.265 141.509L689.131 141.009ZM678.989 131.572C674.594 129.374 669.433 128.285 663.519 128.285V129.285C669.31 129.285 674.312 130.352 678.542 132.466L678.989 131.572ZM663.519 128.285C657.555 128.285 652.368 129.374 647.973 131.572L648.42 132.466C652.649 130.352 657.676 129.285 663.519 129.285V128.285ZM647.973 131.572C643.577 133.77 640.191 136.916 637.83 141.009L638.696 141.509C640.955 137.593 644.192 134.58 648.42 132.466L647.973 131.572ZM637.83 141.009C635.469 145.102 634.298 149.914 634.298 155.427H635.298C635.298 150.058 636.437 145.424 638.696 141.509L637.83 141.009ZM758.895 80.583H759.395V80.083H758.895V80.583ZM758.895 199.163V199.663H759.395V199.163H758.895ZM733.1 199.163H732.6V199.663H733.1V199.163ZM733.1 80.583V80.083H732.6V80.583H733.1ZM758.395 80.583V199.163H759.395V80.583H758.395ZM758.895 198.663H733.1V199.663H758.895V198.663ZM733.6 199.163V80.583H732.6V199.163H733.6ZM733.1 81.083H758.895V80.083H733.1V81.083ZM778.217 80.583V80.083H777.717V80.583H778.217ZM804.012 80.583H804.512V80.083H804.012V80.583ZM804.012 166.515H803.512V167.918L804.399 166.831L804.012 166.515ZM848.826 111.614V111.114H848.589L848.438 111.298L848.826 111.614ZM876.931 111.614L877.31 111.94L878.02 111.114H876.931V111.614ZM846.362 147.188L845.983 146.862L845.741 147.143L845.94 147.456L846.362 147.188ZM879.395 199.163V199.663H880.305L879.817 198.895L879.395 199.163ZM849.904 199.163L849.476 199.422L849.622 199.663H849.904V199.163ZM829.961 166.207L830.389 165.948L830.031 165.358L829.582 165.881L829.961 166.207ZM801.625 199.163V199.663H801.854L802.004 199.489L801.625 199.163ZM778.217 199.163H777.717V199.663H778.217V199.163ZM778.217 81.083H804.012V80.083H778.217V81.083ZM803.512 80.583V166.515H804.512V80.583H803.512ZM804.399 166.831L849.213 111.93L848.438 111.298L803.624 166.199L804.399 166.831ZM848.826 112.114H876.931V111.114H848.826V112.114ZM876.552 111.288L845.983 146.862L846.741 147.514L877.31 111.94L876.552 111.288ZM845.94 147.456L878.973 199.431L879.817 198.895L846.784 146.92L845.94 147.456ZM879.395 198.663H849.904V199.663H879.395V198.663ZM850.332 198.904L830.389 165.948L829.533 166.466L849.476 199.422L850.332 198.904ZM829.582 165.881L801.246 198.837L802.004 199.489L830.34 166.533L829.582 165.881ZM801.625 198.663H778.217V199.663H801.625V198.663ZM778.717 199.163V80.583H777.717V199.163H778.717ZM962.019 179.451L962.516 179.393L962.35 177.978L961.595 179.186L962.019 179.451ZM945.464 195.698L945.215 195.265L945.213 195.266L945.464 195.698ZM885.25 179.451L884.807 179.682L884.809 179.685L885.25 179.451ZM885.25 131.326L884.808 131.093L884.807 131.095L885.25 131.326ZM900.65 115.002L900.399 114.57L900.398 114.571L900.65 115.002ZM945.464 115.002L945.213 115.434L945.217 115.436L945.464 115.002ZM962.096 131.172L961.674 131.439L962.432 132.639L962.593 131.229L962.096 131.172ZM964.329 111.614V111.114H963.883L963.833 111.557L964.329 111.614ZM990.971 111.614L991.468 111.672L991.533 111.114H990.971V111.614ZM985.889 155.35L985.393 155.292L985.386 155.35L985.393 155.408L985.889 155.35ZM990.971 199.163V199.663H991.533L991.468 199.105L990.971 199.163ZM964.329 199.163L963.833 199.221L963.885 199.663H964.329V199.163ZM909.043 168.902L909.485 168.667L909.485 168.667L909.043 168.902ZM917.744 178.142L917.488 178.571L917.491 178.573L917.744 178.142ZM944.078 178.142L943.851 177.697L943.851 177.697L944.078 178.142ZM955.397 168.979L955.013 168.659L955.012 168.66L955.397 168.979ZM963.097 155.427L963.567 155.598L963.629 155.427L963.567 155.256L963.097 155.427ZM955.397 141.875L955.01 142.192L955.013 142.195L955.397 141.875ZM944.078 132.635L943.846 133.078L943.851 133.08L944.078 132.635ZM917.744 132.635L918.001 133.064L918.003 133.063L917.744 132.635ZM909.043 141.952L909.485 142.187L909.486 142.185L909.043 141.952ZM961.595 179.186C957.272 186.103 951.812 191.459 945.215 195.265L945.714 196.131C952.463 192.237 958.04 186.762 962.443 179.716L961.595 179.186ZM945.213 195.266C938.672 199.069 931.393 200.973 923.365 200.973V201.973C931.559 201.973 939.013 200.027 945.716 196.13L945.213 195.266ZM923.365 200.973C914.974 200.973 907.517 199.067 900.979 195.266L900.476 196.13C907.182 200.029 914.817 201.973 923.365 201.973V200.973ZM900.979 195.266C894.44 191.464 889.346 186.118 885.692 179.217L884.809 179.685C888.547 186.746 893.771 192.232 900.476 196.13L900.979 195.266ZM885.694 179.22C882.091 172.32 880.283 164.393 880.283 155.427H879.283C879.283 164.53 881.12 172.62 884.807 179.682L885.694 179.22ZM880.283 155.427C880.283 146.409 882.092 138.457 885.694 131.557L884.807 131.095C881.12 138.158 879.283 146.273 879.283 155.427H880.283ZM885.693 131.559C889.348 124.605 894.417 119.234 900.903 115.433L900.398 114.571C893.743 118.47 888.545 123.982 884.808 131.093L885.693 131.559ZM900.902 115.434C907.439 111.633 914.922 109.727 923.365 109.727V108.727C914.766 108.727 907.106 110.67 900.399 114.57L900.902 115.434ZM923.365 109.727C931.393 109.727 938.672 111.631 945.213 115.434L945.716 114.57C939.013 110.673 931.559 108.727 923.365 108.727V109.727ZM945.217 115.436C951.814 119.192 957.3 124.522 961.674 131.439L962.519 130.905C958.064 123.859 952.462 118.41 945.712 114.567L945.217 115.436ZM962.593 131.229L964.826 111.671L963.833 111.557L961.6 131.115L962.593 131.229ZM964.329 112.114H990.971V111.114H964.329V112.114ZM990.475 111.556L985.393 155.292L986.386 155.408L991.468 111.672L990.475 111.556ZM985.393 155.408L990.475 199.221L991.468 199.105L986.386 155.292L985.393 155.408ZM990.971 198.663H964.329V199.663H990.971V198.663ZM964.826 199.105L962.516 179.393L961.523 179.509L963.833 199.221L964.826 199.105ZM905.386 155.427C905.386 160.529 906.454 165.103 908.602 169.137L909.485 168.667C907.423 164.795 906.386 160.386 906.386 155.427H905.386ZM908.602 169.137C910.748 173.167 913.711 176.315 917.488 178.571L918.001 177.713C914.386 175.554 911.548 172.543 909.485 168.667L908.602 169.137ZM917.491 178.573C921.321 180.829 925.645 181.953 930.449 181.953V180.953C925.808 180.953 921.662 179.869 917.998 177.711L917.491 178.573ZM930.449 181.953C935.304 181.953 939.925 180.83 944.306 178.587L943.851 177.697C939.608 179.869 935.143 180.953 930.449 180.953V181.953ZM944.306 178.587C948.681 176.347 952.507 173.249 955.782 169.298L955.012 168.66C951.82 172.511 948.099 175.522 943.851 177.697L944.306 178.587ZM955.782 169.299C959.106 165.299 961.701 160.731 963.567 155.598L962.628 155.256C960.798 160.287 958.26 164.753 955.013 168.659L955.782 169.299ZM963.567 155.256C961.701 150.123 959.106 145.555 955.782 141.555L955.013 142.195C958.26 146.101 960.798 150.567 962.628 155.598L963.567 155.256ZM955.784 141.558C952.509 137.555 948.683 134.43 944.306 132.19L943.851 133.08C948.098 135.254 951.818 138.289 955.01 142.192L955.784 141.558ZM944.31 132.192C939.928 129.897 935.306 128.747 930.449 128.747V129.747C935.141 129.747 939.605 130.856 943.846 133.078L944.31 132.192ZM930.449 128.747C925.643 128.747 921.318 129.897 917.486 132.207L918.003 133.063C921.666 130.855 925.81 129.747 930.449 129.747V128.747ZM917.488 132.206C913.709 134.463 910.746 137.638 908.601 141.719L909.486 142.185C911.55 138.258 914.388 135.222 918.001 133.064L917.488 132.206ZM908.602 141.717C906.454 145.751 905.386 150.325 905.386 155.427H906.386C906.386 150.468 907.423 146.059 909.485 142.187L908.602 141.717ZM1086.4 178.758L1086.9 178.702L1086.74 177.26L1085.98 178.496L1086.4 178.758ZM1069.69 195.544L1069.95 195.975L1069.95 195.974L1069.69 195.544ZM1009.17 179.451L1008.73 179.682L1008.73 179.685L1009.17 179.451ZM1009.17 131.326L1008.73 131.093L1008.73 131.095L1009.17 131.326ZM1024.57 115.002L1024.32 114.57L1024.32 114.571L1024.57 115.002ZM1069.69 115.079L1069.44 115.511L1069.44 115.511L1069.69 115.079ZM1086.33 131.634L1085.9 131.895L1086.66 133.14L1086.82 131.689L1086.33 131.634ZM1092.02 80.583V80.083H1091.58L1091.53 80.5275L1092.02 80.583ZM1118.67 80.583L1119.16 80.6406L1119.23 80.083H1118.67V80.583ZM1110.2 153.579L1109.7 153.521L1109.69 153.577L1109.7 153.634L1110.2 153.579ZM1115.2 199.163V199.663H1115.76L1115.7 199.108L1115.2 199.163ZM1088.71 199.163L1088.22 199.219L1088.27 199.663H1088.71V199.163ZM1032.97 168.902L1033.41 168.667L1033.41 168.667L1032.97 168.902ZM1041.67 178.142L1041.41 178.571L1041.41 178.573L1041.67 178.142ZM1068 178.142L1067.77 177.697L1067.77 177.697L1068 178.142ZM1079.32 168.979L1078.93 168.659L1078.93 168.66L1079.32 168.979ZM1087.02 155.427L1087.49 155.598L1087.55 155.427L1087.49 155.256L1087.02 155.427ZM1079.32 141.875L1078.93 142.192L1078.93 142.195L1079.32 141.875ZM1068 132.635L1067.77 133.078L1067.77 133.08L1068 132.635ZM1041.67 132.635L1041.92 133.064L1041.92 133.063L1041.67 132.635ZM1032.97 141.952L1033.41 142.187L1033.41 142.185L1032.97 141.952ZM1085.98 178.496C1081.6 185.619 1076.09 191.155 1069.44 195.114L1069.95 195.974C1076.75 191.925 1082.38 186.27 1086.83 179.02L1085.98 178.496ZM1069.44 195.113C1062.8 199.018 1055.42 200.973 1047.29 200.973V201.973C1055.58 201.973 1063.14 199.975 1069.95 195.975L1069.44 195.113ZM1047.29 200.973C1038.9 200.973 1031.44 199.067 1024.9 195.266L1024.4 196.13C1031.1 200.029 1038.74 201.973 1047.29 201.973V200.973ZM1024.9 195.266C1018.36 191.464 1013.27 186.118 1009.61 179.217L1008.73 179.685C1012.47 186.746 1017.69 192.232 1024.4 196.13L1024.9 195.266ZM1009.62 179.22C1006.01 172.32 1004.21 164.393 1004.21 155.427H1003.21C1003.21 164.53 1005.04 172.62 1008.73 179.682L1009.62 179.22ZM1004.21 155.427C1004.21 146.409 1006.01 138.457 1009.62 131.557L1008.73 131.095C1005.04 138.158 1003.21 146.273 1003.21 155.427H1004.21ZM1009.61 131.559C1013.27 124.605 1018.34 119.234 1024.83 115.433L1024.32 114.571C1017.66 118.47 1012.47 123.982 1008.73 131.093L1009.61 131.559ZM1024.82 115.434C1031.36 111.633 1038.84 109.727 1047.29 109.727V108.727C1038.69 108.727 1031.03 110.67 1024.32 114.57L1024.82 115.434ZM1047.29 109.727C1055.42 109.727 1062.8 111.657 1069.44 115.511L1069.95 114.646C1063.14 110.698 1055.58 108.727 1047.29 108.727V109.727ZM1069.44 115.511C1076.09 119.368 1081.58 124.825 1085.9 131.895L1086.75 131.373C1082.35 124.172 1076.75 118.593 1069.95 114.646L1069.44 115.511ZM1086.82 131.689L1092.52 80.6384L1091.53 80.5275L1085.83 131.578L1086.82 131.689ZM1092.02 81.083H1118.67V80.083H1092.02V81.083ZM1118.17 80.5253L1109.7 153.521L1110.69 153.637L1119.16 80.6406L1118.17 80.5253ZM1109.7 153.634L1114.7 199.218L1115.7 199.108L1110.69 153.524L1109.7 153.634ZM1115.2 198.663H1088.71V199.663H1115.2V198.663ZM1089.21 199.107L1086.9 178.702L1085.91 178.814L1088.22 199.219L1089.21 199.107ZM1029.31 155.427C1029.31 160.529 1030.38 165.103 1032.52 169.137L1033.41 168.667C1031.35 164.795 1030.31 160.386 1030.31 155.427H1029.31ZM1032.52 169.137C1034.67 173.167 1037.63 176.315 1041.41 178.571L1041.92 177.713C1038.31 175.554 1035.47 172.543 1033.41 168.667L1032.52 169.137ZM1041.41 178.573C1045.24 180.829 1049.57 181.953 1054.37 181.953V180.953C1049.73 180.953 1045.58 179.869 1041.92 177.711L1041.41 178.573ZM1054.37 181.953C1059.23 181.953 1063.85 180.83 1068.23 178.587L1067.77 177.697C1063.53 179.869 1059.06 180.953 1054.37 180.953V181.953ZM1068.23 178.587C1072.6 176.347 1076.43 173.249 1079.7 169.298L1078.93 168.66C1075.74 172.511 1072.02 175.522 1067.77 177.697L1068.23 178.587ZM1079.7 169.299C1083.03 165.299 1085.62 160.731 1087.49 155.598L1086.55 155.256C1084.72 160.287 1082.18 164.753 1078.93 168.659L1079.7 169.299ZM1087.49 155.256C1085.62 150.123 1083.03 145.555 1079.7 141.555L1078.93 142.195C1082.18 146.101 1084.72 150.567 1086.55 155.598L1087.49 155.256ZM1079.71 141.558C1076.43 137.555 1072.6 134.43 1068.23 132.19L1067.77 133.08C1072.02 135.254 1075.74 138.289 1078.93 142.192L1079.71 141.558ZM1068.23 132.192C1063.85 129.897 1059.23 128.747 1054.37 128.747V129.747C1059.06 129.747 1063.53 130.856 1067.77 133.078L1068.23 132.192ZM1054.37 128.747C1049.57 128.747 1045.24 129.897 1041.41 132.207L1041.92 133.063C1045.59 130.855 1049.73 129.747 1054.37 129.747V128.747ZM1041.41 132.206C1037.63 134.463 1034.67 137.638 1032.52 141.719L1033.41 142.185C1035.47 138.258 1038.31 135.222 1041.92 133.064L1041.41 132.206ZM1032.52 141.717C1030.38 145.751 1029.31 150.325 1029.31 155.427H1030.31C1030.31 150.468 1031.35 146.059 1033.41 142.187L1032.52 141.717ZM1153.57 195.698L1153.36 196.151L1153.36 196.152L1153.57 195.698ZM1134.32 179.528L1133.9 179.802L1133.91 179.803L1134.32 179.528ZM1153.57 115.002L1153.36 114.548L1153.36 114.549L1153.57 115.002ZM1210.78 115.002L1210.57 115.455L1210.57 115.456L1210.78 115.002ZM1230.11 179.528L1230.53 179.803L1230.53 179.802L1230.11 179.528ZM1210.78 195.698L1210.57 195.244L1210.57 195.245L1210.78 195.698ZM1156.96 169.595L1156.53 169.845L1156.53 169.847L1156.96 169.595ZM1166.89 178.758L1167.12 178.311L1167.12 178.311L1166.89 178.758ZM1197.46 178.758L1197.24 178.311L1197.24 178.312L1197.46 178.758ZM1207.4 169.595L1207.83 169.847L1207.83 169.845L1207.4 169.595ZM1207.4 141.259L1206.96 141.509L1206.96 141.509L1207.4 141.259ZM1197.46 132.019L1197.69 131.572L1197.69 131.572L1197.46 132.019ZM1166.89 132.019L1167.12 132.466L1167.12 132.466L1166.89 132.019ZM1156.96 141.259L1156.53 141.009L1156.53 141.009L1156.96 141.259ZM1182.22 200.973C1171.5 200.973 1162.02 199.059 1153.78 195.244L1153.36 196.152C1161.75 200.037 1171.38 201.973 1182.22 201.973V200.973ZM1153.78 195.245C1145.59 191.43 1139.25 186.098 1134.74 179.253L1133.91 179.803C1138.53 186.818 1145.02 192.266 1153.36 196.151L1153.78 195.245ZM1134.74 179.254C1130.23 172.361 1127.97 164.425 1127.97 155.427H1126.97C1126.97 164.601 1129.28 172.732 1133.9 179.802L1134.74 179.254ZM1127.97 155.427C1127.97 146.377 1130.23 138.415 1134.74 131.523L1133.9 130.975C1129.28 138.046 1126.97 146.202 1126.97 155.427H1127.97ZM1134.74 131.523C1139.25 124.627 1145.6 119.27 1153.78 115.455L1153.36 114.549C1145.02 118.434 1138.53 123.909 1133.9 130.975L1134.74 131.523ZM1153.78 115.456C1162.02 111.641 1171.5 109.727 1182.22 109.727V108.727C1171.38 108.727 1161.75 110.663 1153.36 114.548L1153.78 115.456ZM1182.22 109.727C1192.94 109.727 1202.38 111.641 1210.57 115.455L1210.99 114.549C1202.65 110.663 1193.06 108.727 1182.22 108.727V109.727ZM1210.57 115.456C1218.81 119.27 1225.18 124.627 1229.69 131.523L1230.53 130.975C1225.9 123.908 1219.39 118.434 1210.99 114.548L1210.57 115.456ZM1229.69 131.523C1234.2 138.415 1236.46 146.377 1236.46 155.427H1237.46C1237.46 146.202 1235.16 138.046 1230.53 130.975L1229.69 131.523ZM1236.46 155.427C1236.46 164.425 1234.2 172.361 1229.69 179.254L1230.53 179.802C1235.16 172.732 1237.46 164.601 1237.46 155.427H1236.46ZM1229.69 179.253C1225.18 186.097 1218.81 191.429 1210.57 195.244L1210.99 196.152C1219.38 192.267 1225.9 186.819 1230.53 179.803L1229.69 179.253ZM1210.57 195.245C1202.38 199.059 1192.94 200.973 1182.22 200.973V201.973C1193.06 201.973 1202.65 200.037 1210.99 196.151L1210.57 195.245ZM1153 155.427C1153 160.94 1154.17 165.752 1156.53 169.845L1157.39 169.345C1155.13 165.43 1154 160.796 1154 155.427H1153ZM1156.53 169.847C1158.89 173.888 1162.28 177.008 1166.67 179.205L1167.12 178.311C1162.89 176.196 1159.65 173.207 1157.39 169.343L1156.53 169.847ZM1166.67 179.205C1171.07 181.403 1176.25 182.492 1182.22 182.492V181.492C1176.37 181.492 1171.35 180.425 1167.12 178.311L1166.67 179.205ZM1182.22 182.492C1188.18 182.492 1193.34 181.403 1197.69 179.204L1197.24 178.312C1193.06 180.425 1188.06 181.492 1182.22 181.492V182.492ZM1197.69 179.205C1202.08 177.008 1205.47 173.888 1207.83 169.847L1206.96 169.343C1204.71 173.207 1201.47 176.196 1197.24 178.311L1197.69 179.205ZM1207.83 169.845C1210.19 165.752 1211.36 160.94 1211.36 155.427H1210.36C1210.36 160.796 1209.22 165.43 1206.96 169.345L1207.83 169.845ZM1211.36 155.427C1211.36 149.914 1210.19 145.102 1207.83 141.009L1206.96 141.509C1209.22 145.424 1210.36 150.058 1210.36 155.427H1211.36ZM1207.83 141.009C1205.47 136.916 1202.08 133.77 1197.69 131.572L1197.24 132.466C1201.47 134.58 1204.7 137.593 1206.96 141.509L1207.83 141.009ZM1197.69 131.572C1193.29 129.374 1188.13 128.285 1182.22 128.285V129.285C1188.01 129.285 1193.01 130.352 1197.24 132.466L1197.69 131.572ZM1182.22 128.285C1176.25 128.285 1171.07 129.374 1166.67 131.572L1167.12 132.466C1171.35 130.352 1176.37 129.285 1182.22 129.285V128.285ZM1166.67 131.572C1162.27 133.77 1158.89 136.916 1156.53 141.009L1157.39 141.509C1159.65 137.593 1162.89 134.58 1167.12 132.466L1166.67 131.572ZM1156.53 141.009C1154.17 145.102 1153 149.914 1153 155.427H1154C1154 150.058 1155.13 145.424 1157.39 141.509L1156.53 141.009ZM1241.36 119.545L1241.21 119.07L1240.86 119.183V119.545H1241.36ZM1259.61 113.539L1259.77 114.014L1259.98 113.944L1260.07 113.738L1259.61 113.539ZM1270.55 88.36V87.86H1270.22L1270.09 88.1608L1270.55 88.36ZM1285.33 88.36H1285.83V87.86H1285.33V88.36ZM1285.33 111.614H1284.83V112.114H1285.33V111.614ZM1324.06 111.614H1324.56V111.114H1324.06V111.614ZM1324.06 130.941V131.441H1324.56V130.941H1324.06ZM1285.33 130.941V130.441H1284.83V130.941H1285.33ZM1287.18 173.676L1286.73 173.885L1286.73 173.885L1287.18 173.676ZM1293.11 179.451L1292.91 179.91L1292.91 179.91L1293.11 179.451ZM1315.82 179.99L1315.71 179.504L1315.71 179.504L1315.82 179.99ZM1325.6 176.294H1326.1V175.461L1325.37 175.853L1325.6 176.294ZM1325.6 196.391L1325.8 196.849L1326.1 196.719V196.391H1325.6ZM1313.44 199.933L1313.34 199.442L1313.33 199.443L1313.44 199.933ZM1269.16 192.233L1268.81 192.592L1268.81 192.592L1269.16 192.233ZM1259.61 130.941H1260.11V130.441H1259.61V130.941ZM1241.36 130.941H1240.86V131.441H1241.36V130.941ZM1241.52 120.02L1259.77 114.014L1259.46 113.064L1241.21 119.07L1241.52 120.02ZM1260.07 113.738L1271.01 88.5591L1270.09 88.1608L1259.15 113.34L1260.07 113.738ZM1270.55 88.86H1285.33V87.86H1270.55V88.86ZM1284.83 88.36V111.614H1285.83V88.36H1284.83ZM1285.33 112.114H1324.06V111.114H1285.33V112.114ZM1323.56 111.614V130.941H1324.56V111.614H1323.56ZM1324.06 130.441H1285.33V131.441H1324.06V130.441ZM1284.83 130.941V162.742H1285.83V130.941H1284.83ZM1284.83 162.742C1284.83 167.397 1285.45 171.124 1286.73 173.885L1287.63 173.466C1286.44 170.89 1285.83 167.327 1285.83 162.742H1284.83ZM1286.73 173.885C1288.01 176.667 1290.08 178.681 1292.91 179.91L1293.31 178.992C1290.7 177.86 1288.81 176.023 1287.63 173.466L1286.73 173.885ZM1292.91 179.91C1295.72 181.129 1299.52 181.722 1304.27 181.722V180.722C1299.58 180.722 1295.94 180.134 1293.31 178.992L1292.91 179.91ZM1304.27 181.722C1308.62 181.722 1312.51 181.308 1315.94 180.476L1315.71 179.504C1312.36 180.314 1308.55 180.722 1304.27 180.722V181.722ZM1315.94 180.476C1319.42 179.645 1322.72 178.398 1325.84 176.735L1325.37 175.853C1322.33 177.475 1319.11 178.692 1315.71 179.504L1315.94 180.476ZM1325.1 176.294V196.391H1326.1V176.294H1325.1ZM1325.4 195.933C1322.26 197.299 1318.25 198.471 1313.34 199.442L1313.53 200.423C1318.48 199.444 1322.58 198.255 1325.8 196.849L1325.4 195.933ZM1313.33 199.443C1308.44 200.463 1303.52 200.973 1298.58 200.973V201.973C1303.59 201.973 1308.58 201.456 1313.54 200.422L1313.33 199.443ZM1298.58 200.973C1285.4 200.973 1275.74 197.907 1269.51 191.874L1268.81 192.592C1275.31 198.879 1285.27 201.973 1298.58 201.973V200.973ZM1269.51 191.874C1263.26 185.83 1260.11 177.375 1260.11 166.438H1259.11C1259.11 177.575 1262.33 186.316 1268.81 192.592L1269.51 191.874ZM1260.11 166.438V130.941H1259.11V166.438H1260.11ZM1259.61 130.441H1241.36V131.441H1259.61V130.441ZM1241.86 130.941V119.545H1240.86V130.941H1241.86ZM580.02 340.163V340.663H580.806L580.473 339.951L580.02 340.163ZM561.015 340.163L560.559 340.368L560.692 340.663H561.015V340.163ZM553.56 323.573L554.016 323.368L553.883 323.073H553.56V323.573ZM509.88 323.573V323.073H509.557L509.424 323.368L509.88 323.573ZM502.425 340.163V340.663H502.748L502.881 340.368L502.425 340.163ZM483.42 340.163L482.967 339.951L482.634 340.663H483.42V340.163ZM520.223 261.413V260.913H519.904L519.77 261.201L520.223 261.413ZM543.218 261.413L543.67 261.201L543.536 260.913H543.218V261.413ZM547.05 309.083V309.583H547.824L547.506 308.877L547.05 309.083ZM531.72 275.115L532.176 274.91L531.719 273.898L531.264 274.91L531.72 275.115ZM516.443 309.083L515.987 308.878L515.669 309.583H516.443V309.083ZM580.02 339.663H561.015V340.663H580.02V339.663ZM561.471 339.958L554.016 323.368L553.104 323.778L560.559 340.368L561.471 339.958ZM553.56 323.073H509.88V324.073H553.56V323.073ZM509.424 323.368L501.969 339.958L502.881 340.368L510.336 323.778L509.424 323.368ZM502.425 339.663H483.42V340.663H502.425V339.663ZM483.873 340.375L520.675 261.625L519.77 261.201L482.967 339.951L483.873 340.375ZM520.223 261.913H543.218V260.913H520.223V261.913ZM542.765 261.625L579.567 340.375L580.473 339.951L543.67 261.201L542.765 261.625ZM547.506 308.877L532.176 274.91L531.264 275.321L546.594 309.289L547.506 308.877ZM531.264 274.91L515.987 308.878L516.899 309.288L532.176 275.321L531.264 274.91ZM516.443 309.583H547.05V308.583H516.443V309.583ZM640.735 293.595L640.424 293.203L640.422 293.206L640.735 293.595ZM640.735 278.265L640.422 278.655L640.424 278.658L640.735 278.265ZM606.295 275.483V274.983H605.795V275.483H606.295ZM606.295 296.378H605.795V296.878H606.295V296.378ZM588.497 261.413V260.913H587.997V261.413H588.497ZM648.452 264.51L648.239 264.963L648.242 264.964L648.452 264.51ZM658.637 273.12L659.056 272.848L659.056 272.848L658.637 273.12ZM659.53 297.113L659.968 297.353L659.968 297.353L659.53 297.113ZM651.76 305.355L651.488 304.935L651.486 304.937L651.76 305.355ZM640.052 309.713L639.971 309.22L639.124 309.359L639.663 310.027L640.052 309.713ZM664.622 340.163V340.663H665.668L665.011 339.849L664.622 340.163ZM643.727 340.163L643.335 340.474L643.485 340.663H643.727V340.163ZM619.997 310.238L620.389 309.927L620.239 309.738H619.997V310.238ZM606.295 310.238V309.738H605.795V310.238H606.295ZM606.295 340.163V340.663H606.795V340.163H606.295ZM588.497 340.163H587.997V340.663H588.497V340.163ZM631.18 296.878C635.312 296.878 638.621 295.934 641.048 293.985L640.422 293.206C638.228 294.967 635.168 295.878 631.18 295.878V296.878ZM641.045 293.988C643.521 292.029 644.752 289.323 644.752 285.93H643.752C643.752 289.048 642.638 291.452 640.424 293.203L641.045 293.988ZM644.752 285.93C644.752 282.538 643.521 279.832 641.045 277.873L640.424 278.658C642.638 280.409 643.752 282.813 643.752 285.93H644.752ZM641.048 277.876C638.621 275.927 635.312 274.983 631.18 274.983V275.983C635.168 275.983 638.228 276.894 640.422 278.655L641.048 277.876ZM631.18 274.983H606.295V275.983H631.18V274.983ZM605.795 275.483V296.378H606.795V275.483H605.795ZM606.295 296.878H631.18V295.878H606.295V296.878ZM588.497 261.913H633.332V260.913H588.497V261.913ZM633.332 261.913C638.976 261.913 643.941 262.934 648.239 264.963L648.666 264.058C644.213 261.957 639.098 260.913 633.332 260.913V261.913ZM648.242 264.964C652.539 266.958 655.859 269.769 658.218 273.393L659.056 272.848C656.585 269.052 653.115 266.123 648.663 264.057L648.242 264.964ZM658.218 273.393C660.575 277.015 661.76 281.188 661.76 285.93H662.76C662.76 281.013 661.529 276.646 659.056 272.848L658.218 273.393ZM661.76 285.93C661.76 289.984 660.867 293.628 659.091 296.873L659.968 297.353C661.832 293.948 662.76 290.137 662.76 285.93H661.76ZM659.091 296.873C657.313 300.121 654.782 302.808 651.488 304.935L652.031 305.775C655.457 303.563 658.106 300.755 659.968 297.353L659.091 296.873ZM651.486 304.937C648.227 307.064 644.392 308.494 639.971 309.22L640.133 310.206C644.672 309.462 648.642 307.987 652.033 305.774L651.486 304.937ZM639.663 310.027L664.233 340.477L665.011 339.849L640.441 309.399L639.663 310.027ZM664.622 339.663H643.727V340.663H664.622V339.663ZM644.119 339.852L620.389 309.927L619.605 310.549L643.335 340.474L644.119 339.852ZM619.997 309.738H606.295V310.738H619.997V309.738ZM605.795 310.238V340.163H606.795V310.238H605.795ZM606.295 339.663H588.497V340.663H606.295V339.663ZM588.997 340.163V261.413H587.997V340.163H588.997ZM740.755 307.613V308.113H741.255V307.613H740.755ZM695.29 307.613V307.113H694.864L694.797 307.534L695.29 307.613ZM692.455 325.358L691.962 325.279L691.869 325.858H692.455V325.358ZM744.01 325.358H744.51V324.858H744.01V325.358ZM744.01 340.163V340.663H744.51V340.163H744.01ZM673.083 340.163L672.589 340.086L672.499 340.663H673.083V340.163ZM679.225 300.788L679.719 300.865L679.731 300.788L679.719 300.711L679.225 300.788ZM673.083 261.413V260.913H672.499L672.589 261.49L673.083 261.413ZM743.485 261.413H743.985V260.913H743.485V261.413ZM743.485 276.218V276.718H743.985V276.218H743.485ZM692.455 276.218V275.718H691.869L691.962 276.297L692.455 276.218ZM695.29 293.963L694.797 294.042L694.864 294.463H695.29V293.963ZM740.755 293.963H741.255V293.463H740.755V293.963ZM740.755 307.113H695.29V308.113H740.755V307.113ZM694.797 307.534L691.962 325.279L692.949 325.437L695.784 307.692L694.797 307.534ZM692.455 325.858H744.01V324.858H692.455V325.858ZM743.51 325.358V340.163H744.51V325.358H743.51ZM744.01 339.663H673.083V340.663H744.01V339.663ZM673.577 340.24L679.719 300.865L678.731 300.711L672.589 340.086L673.577 340.24ZM679.719 300.711L673.577 261.336L672.589 261.49L678.731 300.865L679.719 300.711ZM673.083 261.913H743.485V260.913H673.083V261.913ZM742.985 261.413V276.218H743.985V261.413H742.985ZM743.485 275.718H692.455V276.718H743.485V275.718ZM691.962 276.297L694.797 294.042L695.784 293.884L692.949 276.139L691.962 276.297ZM695.29 294.463H740.755V293.463H695.29V294.463ZM740.255 293.963V307.613H741.255V293.963H740.255ZM757.584 261.413V260.913H757.084V261.413H757.584ZM780.684 261.413L781.085 261.114L780.935 260.913H780.684V261.413ZM824.364 320.055L823.963 320.354L824.864 321.564V320.055H824.364ZM824.364 261.413V260.913H823.864V261.413H824.364ZM841.637 261.413H842.137V260.913H841.637V261.413ZM841.637 340.163V340.663H842.137V340.163H841.637ZM819.114 340.163L818.712 340.461L818.862 340.663H819.114V340.163ZM774.857 280.47L775.258 280.173L774.357 278.957V280.47H774.857ZM774.857 340.163V340.663H775.357V340.163H774.857ZM757.584 340.163H757.084V340.663H757.584V340.163ZM757.584 261.913H780.684V260.913H757.584V261.913ZM780.283 261.712L823.963 320.354L824.765 319.757L781.085 261.114L780.283 261.712ZM824.864 320.055V261.413H823.864V320.055H824.864ZM824.364 261.913H841.637V260.913H824.364V261.913ZM841.137 261.413V340.163H842.137V261.413H841.137ZM841.637 339.663H819.114V340.663H841.637V339.663ZM819.516 339.865L775.258 280.173L774.455 280.768L818.712 340.461L819.516 339.865ZM774.357 280.47V340.163H775.357V280.47H774.357ZM774.857 339.663H757.584V340.663H774.857V339.663ZM758.084 340.163V261.413H757.084V340.163H758.084ZM946.7 340.163V340.663H947.485L947.153 339.951L946.7 340.163ZM927.695 340.163L927.239 340.368L927.371 340.663H927.695V340.163ZM920.24 323.573L920.696 323.368L920.563 323.073H920.24V323.573ZM876.56 323.573V323.073H876.236L876.104 323.368L876.56 323.573ZM869.105 340.163V340.663H869.428L869.561 340.368L869.105 340.163ZM850.1 340.163L849.647 339.951L849.314 340.663H850.1V340.163ZM886.902 261.413V260.913H886.584L886.449 261.201L886.902 261.413ZM909.897 261.413L910.35 261.201L910.215 260.913H909.897V261.413ZM913.73 309.083V309.583H914.504L914.185 308.877L913.73 309.083ZM898.4 275.115L898.855 274.91L898.399 273.898L897.944 274.91L898.4 275.115ZM883.122 309.083L882.666 308.878L882.349 309.583H883.122V309.083ZM946.7 339.663H927.695V340.663H946.7V339.663ZM928.151 339.958L920.696 323.368L919.784 323.778L927.239 340.368L928.151 339.958ZM920.24 323.073H876.56V324.073H920.24V323.073ZM876.104 323.368L868.649 339.958L869.561 340.368L877.016 323.778L876.104 323.368ZM869.105 339.663H850.1V340.663H869.105V339.663ZM850.553 340.375L887.355 261.625L886.449 261.201L849.647 339.951L850.553 340.375ZM886.902 261.913H909.897V260.913H886.902V261.913ZM909.444 261.625L946.247 340.375L947.153 339.951L910.35 261.201L909.444 261.625ZM914.185 308.877L898.855 274.91L897.944 275.321L913.274 309.289L914.185 308.877ZM897.944 274.91L882.666 308.878L883.578 309.288L898.856 275.321L897.944 274.91ZM883.122 309.583H913.73V308.583H883.122V309.583Z" fill="black"/>
</svg>
