<svg width="213" height="32" viewBox="0 0 213 32" fill="none" xmlns="http://www.w3.org/2000/svg">
<path d="M47.2592 8.82031C48.3152 8.82031 49.2332 9.00631 50.0132 9.37831C50.7992 9.75031 51.4022 10.2753 51.8222 10.9533C52.2422 11.6253 52.4522 12.4023 52.4522 13.2843C52.4522 14.1663 52.2422 14.9433 51.8222 15.6153C51.4022 16.2873 50.7992 16.8093 50.0132 17.1813C49.2272 17.5533 48.3092 17.7393 47.2592 17.7393H42.9482V22.3203H39.8972V8.82031H47.2592ZM47.0972 15.2193C47.8052 15.2193 48.3572 15.0483 48.7532 14.7063C49.1552 14.3643 49.3562 13.8903 49.3562 13.2843C49.3562 12.6783 49.1552 12.2043 48.7532 11.8623C48.3572 11.5143 47.8052 11.3403 47.0972 11.3403H42.9482V15.2193H47.0972ZM59.6109 22.5903C58.3509 22.5903 57.2349 22.3653 56.2629 21.9153C55.2969 21.4653 54.5469 20.8353 54.0129 20.0253C53.4789 19.2093 53.2119 18.2703 53.2119 17.2083C53.2119 16.1403 53.4789 15.1983 54.0129 14.3823C54.5469 13.5663 55.2969 12.9333 56.2629 12.4833C57.2349 12.0333 58.3509 11.8083 59.6109 11.8083C60.8709 11.8083 61.9839 12.0333 62.9499 12.4833C63.9219 12.9333 64.6749 13.5663 65.2089 14.3823C65.7429 15.1983 66.0099 16.1403 66.0099 17.2083C66.0099 18.2703 65.7429 19.2093 65.2089 20.0253C64.6749 20.8353 63.9219 21.4653 62.9499 21.9153C61.9839 22.3653 60.8709 22.5903 59.6109 22.5903ZM56.2539 17.2083C56.2539 17.8443 56.3889 18.3963 56.6589 18.8643C56.9289 19.3263 57.3159 19.6833 57.8199 19.9353C58.3239 20.1873 58.9209 20.3133 59.6109 20.3133C60.3009 20.3133 60.8949 20.1873 61.3929 19.9353C61.8969 19.6833 62.2839 19.3263 62.5539 18.8643C62.8239 18.3963 62.9589 17.8443 62.9589 17.2083C62.9589 16.5723 62.8239 16.0203 62.5539 15.5523C62.2839 15.0843 61.8969 14.7243 61.3929 14.4723C60.8889 14.2203 60.2949 14.0943 59.6109 14.0943C58.9209 14.0943 58.3239 14.2203 57.8199 14.4723C57.3159 14.7243 56.9289 15.0843 56.6589 15.5523C56.3889 16.0203 56.2539 16.5723 56.2539 17.2083ZM70.7587 8.46031V22.3203H67.7437V8.46031H70.7587ZM73.0171 8.46031H76.0321V18.5043L81.2701 12.0873H84.5551L80.9821 16.2453L84.8431 22.3203H81.3961L79.0651 18.4683L75.7531 22.3203H73.0171V8.46031ZM94.5005 20.0163C93.9905 20.8323 93.3455 21.4653 92.5655 21.9153C91.7915 22.3653 90.9305 22.5903 89.9825 22.5903C88.9925 22.5903 88.1105 22.3653 87.3365 21.9153C86.5625 21.4653 85.9595 20.8323 85.5275 20.0163C85.1015 19.2003 84.8885 18.2643 84.8885 17.2083C84.8885 16.1463 85.1015 15.2073 85.5275 14.3913C85.9595 13.5693 86.5595 12.9333 87.3275 12.4833C88.1015 12.0333 88.9865 11.8083 89.9825 11.8083C90.9305 11.8083 91.7915 12.0333 92.5655 12.4833C93.3455 12.9273 93.9935 13.5573 94.5095 14.3733L94.7705 12.0873H97.8845L97.2905 17.1993L97.8845 22.3203H94.7705L94.5005 20.0163ZM87.9395 17.2083C87.9395 17.7963 88.0625 18.3213 88.3085 18.7833C88.5545 19.2453 88.8935 19.6053 89.3255 19.8633C89.7635 20.1213 90.2585 20.2503 90.8105 20.2503C91.3685 20.2503 91.8995 20.1213 92.4035 19.8633C92.9075 19.6053 93.3485 19.2483 93.7265 18.7923C94.1105 18.3303 94.4105 17.8023 94.6265 17.2083C94.4105 16.6143 94.1105 16.0863 93.7265 15.6243C93.3485 15.1623 92.9075 14.8023 92.4035 14.5443C91.8995 14.2803 91.3685 14.1483 90.8105 14.1483C90.2585 14.1483 89.7635 14.2803 89.3255 14.5443C88.8935 14.8023 88.5545 15.1653 88.3085 15.6333C88.0625 16.0953 87.9395 16.6203 87.9395 17.2083ZM109.039 19.9353C108.523 20.7753 107.872 21.4293 107.086 21.8973C106.3 22.3593 105.427 22.5903 104.467 22.5903C103.477 22.5903 102.595 22.3653 101.821 21.9153C101.047 21.4653 100.444 20.8323 100.012 20.0163C99.5859 19.2003 99.3729 18.2643 99.3729 17.2083C99.3729 16.1463 99.5859 15.2073 100.012 14.3913C100.444 13.5693 101.044 12.9333 101.812 12.4833C102.586 12.0333 103.471 11.8083 104.467 11.8083C105.427 11.8083 106.3 12.0363 107.086 12.4923C107.872 12.9483 108.52 13.5933 109.03 14.4273L109.696 8.46031H112.81L111.82 16.9923L112.405 22.3203H109.309L109.039 19.9353ZM102.424 17.2083C102.424 17.7963 102.547 18.3213 102.793 18.7833C103.039 19.2453 103.378 19.6053 103.81 19.8633C104.248 20.1213 104.743 20.2503 105.295 20.2503C105.853 20.2503 106.384 20.1213 106.888 19.8633C107.392 19.6053 107.833 19.2483 108.211 18.7923C108.595 18.3303 108.895 17.8023 109.111 17.2083C108.895 16.6143 108.595 16.0863 108.211 15.6243C107.833 15.1623 107.392 14.8023 106.888 14.5443C106.384 14.2803 105.853 14.1483 105.295 14.1483C104.743 14.1483 104.248 14.2803 103.81 14.5443C103.378 14.8023 103.039 15.1653 102.793 15.6333C102.547 16.0953 102.424 16.6203 102.424 17.2083ZM120.238 22.5903C118.978 22.5903 117.862 22.3653 116.89 21.9153C115.924 21.4653 115.174 20.8353 114.64 20.0253C114.106 19.2093 113.839 18.2703 113.839 17.2083C113.839 16.1403 114.106 15.1983 114.64 14.3823C115.174 13.5663 115.924 12.9333 116.89 12.4833C117.862 12.0333 118.978 11.8083 120.238 11.8083C121.498 11.8083 122.611 12.0333 123.577 12.4833C124.549 12.9333 125.302 13.5663 125.836 14.3823C126.37 15.1983 126.637 16.1403 126.637 17.2083C126.637 18.2703 126.37 19.2093 125.836 20.0253C125.302 20.8353 124.549 21.4653 123.577 21.9153C122.611 22.3653 121.498 22.5903 120.238 22.5903ZM116.881 17.2083C116.881 17.8443 117.016 18.3963 117.286 18.8643C117.556 19.3263 117.943 19.6833 118.447 19.9353C118.951 20.1873 119.548 20.3133 120.238 20.3133C120.928 20.3133 121.522 20.1873 122.02 19.9353C122.524 19.6833 122.911 19.3263 123.181 18.8643C123.451 18.3963 123.586 17.8443 123.586 17.2083C123.586 16.5723 123.451 16.0203 123.181 15.5523C122.911 15.0843 122.524 14.7243 122.02 14.4723C121.516 14.2203 120.922 14.0943 120.238 14.0943C119.548 14.0943 118.951 14.2203 118.447 14.4723C117.943 14.7243 117.556 15.0843 117.286 15.5523C117.016 16.0203 116.881 16.5723 116.881 17.2083ZM127.151 13.0143L129.284 12.3123L130.562 9.36931H132.29V12.0873H136.817V14.3463H132.29V18.0633C132.29 18.6033 132.362 19.0293 132.506 19.3413C132.65 19.6533 132.881 19.8783 133.199 20.0163C133.517 20.1543 133.952 20.2233 134.504 20.2233C135.008 20.2233 135.458 20.1753 135.854 20.0793C136.256 19.9833 136.637 19.8393 136.997 19.6473V21.9963C136.625 22.1583 136.151 22.2963 135.575 22.4103C134.999 22.5303 134.42 22.5903 133.838 22.5903C132.29 22.5903 131.144 22.2303 130.4 21.5103C129.656 20.7903 129.284 19.7853 129.284 18.4953V14.3463H127.151V13.0143ZM158.063 22.3203H154.805L153.527 19.4763H146.039L144.761 22.3203H141.503L147.812 8.82031H151.754L158.063 22.3203ZM152.411 16.9923L149.783 11.1693L147.164 16.9923H152.411ZM161.776 12.0873L162.235 14.8503C162.565 13.9023 163.045 13.1583 163.675 12.6183C164.305 12.0783 165.094 11.8083 166.042 11.8083C166.492 11.8083 166.939 11.8623 167.383 11.9703V14.5623C166.789 14.4243 166.183 14.3553 165.565 14.3553C164.953 14.3553 164.407 14.4843 163.927 14.7423C163.447 15.0003 163.069 15.3963 162.793 15.9303C162.523 16.4583 162.388 17.1153 162.388 17.9013V22.3203H159.382V15.4443L158.734 12.0873H161.776ZM174.227 22.5903C173.015 22.5903 171.929 22.3653 170.969 21.9153C170.009 21.4593 169.259 20.8233 168.719 20.0073C168.179 19.1853 167.909 18.2403 167.909 17.1723C167.909 16.1223 168.167 15.1923 168.683 14.3823C169.199 13.5663 169.916 12.9333 170.834 12.4833C171.752 12.0333 172.79 11.8083 173.948 11.8083C175.112 11.8083 176.126 12.0693 176.99 12.5913C177.854 13.1073 178.517 13.8453 178.979 14.8053C179.447 15.7593 179.681 16.8723 179.681 18.1443H171.131C171.359 18.8403 171.803 19.3773 172.463 19.7553C173.123 20.1333 173.96 20.3223 174.974 20.3223C175.748 20.3223 176.525 20.2113 177.305 19.9893C178.085 19.7673 178.784 19.4553 179.402 19.0533V21.0693C178.724 21.5493 177.935 21.9243 177.035 22.1943C176.141 22.4583 175.205 22.5903 174.227 22.5903ZM176.756 16.1463C176.582 15.4683 176.252 14.9463 175.766 14.5803C175.286 14.2083 174.686 14.0223 173.966 14.0223C173.204 14.0223 172.565 14.2143 172.049 14.5983C171.539 14.9763 171.203 15.4923 171.041 16.1463H176.756ZM183.915 12.0873L184.293 14.3823C184.719 13.5543 185.295 12.9183 186.021 12.4743C186.753 12.0303 187.569 11.8083 188.469 11.8083C189.435 11.8083 190.26 12.0033 190.944 12.3933C191.634 12.7773 192.159 13.3323 192.519 14.0583C192.879 14.7783 193.059 15.6333 193.059 16.6233V22.3203H190.053V17.0823C190.053 16.1703 189.828 15.4743 189.378 14.9943C188.934 14.5143 188.292 14.2743 187.452 14.2743C186.864 14.2743 186.351 14.4033 185.913 14.6613C185.481 14.9133 185.145 15.2733 184.905 15.7413C184.671 16.2033 184.554 16.7433 184.554 17.3613V22.3203H181.548V15.5253L180.9 12.0873H183.915ZM204.293 20.0163C203.783 20.8323 203.138 21.4653 202.358 21.9153C201.584 22.3653 200.723 22.5903 199.775 22.5903C198.785 22.5903 197.903 22.3653 197.129 21.9153C196.355 21.4653 195.752 20.8323 195.32 20.0163C194.894 19.2003 194.681 18.2643 194.681 17.2083C194.681 16.1463 194.894 15.2073 195.32 14.3913C195.752 13.5693 196.352 12.9333 197.12 12.4833C197.894 12.0333 198.779 11.8083 199.775 11.8083C200.723 11.8083 201.584 12.0333 202.358 12.4833C203.138 12.9273 203.786 13.5573 204.302 14.3733L204.563 12.0873H207.677L207.083 17.1993L207.677 22.3203H204.563L204.293 20.0163ZM197.732 17.2083C197.732 17.7963 197.855 18.3213 198.101 18.7833C198.347 19.2453 198.686 19.6053 199.118 19.8633C199.556 20.1213 200.051 20.2503 200.603 20.2503C201.161 20.2503 201.692 20.1213 202.196 19.8633C202.7 19.6053 203.141 19.2483 203.519 18.7923C203.903 18.3303 204.203 17.8023 204.419 17.2083C204.203 16.6143 203.903 16.0863 203.519 15.6243C203.141 15.1623 202.7 14.8023 202.196 14.5443C201.692 14.2803 201.161 14.1483 200.603 14.1483C200.051 14.1483 199.556 14.2803 199.118 14.5443C198.686 14.8023 198.347 15.1653 198.101 15.6333C197.855 16.0953 197.732 16.6203 197.732 17.2083Z" fill="white"/>
<path d="M16.7384 6.70493C19.9247 6.70493 22.5077 5.20398 22.5077 3.35247C22.5077 1.50095 19.9247 0 16.7384 0C13.552 0 10.969 1.50095 10.969 3.35247C10.969 5.20398 13.552 6.70493 16.7384 6.70493Z" fill="white"/>
<path d="M16.7384 31.9732C19.9247 31.9732 22.5077 30.4723 22.5077 28.6208C22.5077 26.7693 19.9247 25.2683 16.7384 25.2683C13.552 25.2683 10.969 26.7693 10.969 28.6208C10.969 30.4723 13.552 31.9732 16.7384 31.9732Z" fill="white"/>
<path d="M8.6931 11.3501C10.2863 8.59073 10.278 5.60336 8.67455 4.6776C7.07114 3.75184 4.4798 5.23827 2.88663 7.99763C1.29347 10.757 1.30178 13.7444 2.90519 14.6701C4.5086 15.5959 7.09994 14.1095 8.6931 11.3501Z" fill="#16984E"/>
<path d="M30.584 23.9857C32.1771 21.2264 32.1688 18.239 30.5654 17.3132C28.962 16.3875 26.3707 17.8739 24.7775 20.6333C23.1843 23.3926 23.1926 26.38 24.7961 27.3057C26.3995 28.2315 28.9908 26.7451 30.584 23.9857Z" fill="#16984E"/>
<path d="M8.6726 27.2991C10.276 26.3733 10.2843 23.3859 8.69115 20.6266C7.09799 17.8672 4.50665 16.3808 2.90324 17.3066C1.29982 18.2323 1.29152 21.2197 2.88468 23.9791C4.47785 26.7384 7.06918 28.2248 8.6726 27.2991Z" fill="#E6007A"/>
<path d="M30.564 14.6598C32.1674 13.734 32.1757 10.7467 30.5825 7.98731C28.9893 5.22794 26.398 3.74151 24.7946 4.66727C23.1912 5.59303 23.1829 8.58041 24.776 11.3398C26.3692 14.0991 28.9605 15.5856 30.564 14.6598Z" fill="#E6007A"/>
</svg>
