<svg width="213" height="34" viewBox="0 0 213 34" fill="none" xmlns="http://www.w3.org/2000/svg">
<path d="M47.2592 9.82031C48.3152 9.82031 49.2332 10.0063 50.0132 10.3783C50.7992 10.7503 51.4022 11.2753 51.8222 11.9533C52.2422 12.6253 52.4522 13.4023 52.4522 14.2843C52.4522 15.1663 52.2422 15.9433 51.8222 16.6153C51.4022 17.2873 50.7992 17.8093 50.0132 18.1813C49.2272 18.5533 48.3092 18.7393 47.2592 18.7393H42.9482V23.3203H39.8972V9.82031H47.2592ZM47.0972 16.2193C47.8052 16.2193 48.3572 16.0483 48.7532 15.7063C49.1552 15.3643 49.3562 14.8903 49.3562 14.2843C49.3562 13.6783 49.1552 13.2043 48.7532 12.8623C48.3572 12.5143 47.8052 12.3403 47.0972 12.3403H42.9482V16.2193H47.0972ZM59.6109 23.5903C58.3509 23.5903 57.2349 23.3653 56.2629 22.9153C55.2969 22.4653 54.5469 21.8353 54.0129 21.0253C53.4789 20.2093 53.2119 19.2703 53.2119 18.2083C53.2119 17.1403 53.4789 16.1983 54.0129 15.3823C54.5469 14.5663 55.2969 13.9333 56.2629 13.4833C57.2349 13.0333 58.3509 12.8083 59.6109 12.8083C60.8709 12.8083 61.9839 13.0333 62.9499 13.4833C63.9219 13.9333 64.6749 14.5663 65.2089 15.3823C65.7429 16.1983 66.0099 17.1403 66.0099 18.2083C66.0099 19.2703 65.7429 20.2093 65.2089 21.0253C64.6749 21.8353 63.9219 22.4653 62.9499 22.9153C61.9839 23.3653 60.8709 23.5903 59.6109 23.5903ZM56.2539 18.2083C56.2539 18.8443 56.3889 19.3963 56.6589 19.8643C56.9289 20.3263 57.3159 20.6833 57.8199 20.9353C58.3239 21.1873 58.9209 21.3133 59.6109 21.3133C60.3009 21.3133 60.8949 21.1873 61.3929 20.9353C61.8969 20.6833 62.2839 20.3263 62.5539 19.8643C62.8239 19.3963 62.9589 18.8443 62.9589 18.2083C62.9589 17.5723 62.8239 17.0203 62.5539 16.5523C62.2839 16.0843 61.8969 15.7243 61.3929 15.4723C60.8889 15.2203 60.2949 15.0943 59.6109 15.0943C58.9209 15.0943 58.3239 15.2203 57.8199 15.4723C57.3159 15.7243 56.9289 16.0843 56.6589 16.5523C56.3889 17.0203 56.2539 17.5723 56.2539 18.2083ZM70.7587 9.46031V23.3203H67.7437V9.46031H70.7587ZM73.0171 9.46031H76.0321V19.5043L81.2701 13.0873H84.5551L80.9821 17.2453L84.8431 23.3203H81.3961L79.0651 19.4683L75.7531 23.3203H73.0171V9.46031ZM94.5005 21.0163C93.9905 21.8323 93.3455 22.4653 92.5655 22.9153C91.7915 23.3653 90.9305 23.5903 89.9825 23.5903C88.9925 23.5903 88.1105 23.3653 87.3365 22.9153C86.5625 22.4653 85.9595 21.8323 85.5275 21.0163C85.1015 20.2003 84.8885 19.2643 84.8885 18.2083C84.8885 17.1463 85.1015 16.2073 85.5275 15.3913C85.9595 14.5693 86.5595 13.9333 87.3275 13.4833C88.1015 13.0333 88.9865 12.8083 89.9825 12.8083C90.9305 12.8083 91.7915 13.0333 92.5655 13.4833C93.3455 13.9273 93.9935 14.5573 94.5095 15.3733L94.7705 13.0873H97.8845L97.2905 18.1993L97.8845 23.3203H94.7705L94.5005 21.0163ZM87.9395 18.2083C87.9395 18.7963 88.0625 19.3213 88.3085 19.7833C88.5545 20.2453 88.8935 20.6053 89.3255 20.8633C89.7635 21.1213 90.2585 21.2503 90.8105 21.2503C91.3685 21.2503 91.8995 21.1213 92.4035 20.8633C92.9075 20.6053 93.3485 20.2483 93.7265 19.7923C94.1105 19.3303 94.4105 18.8023 94.6265 18.2083C94.4105 17.6143 94.1105 17.0863 93.7265 16.6243C93.3485 16.1623 92.9075 15.8023 92.4035 15.5443C91.8995 15.2803 91.3685 15.1483 90.8105 15.1483C90.2585 15.1483 89.7635 15.2803 89.3255 15.5443C88.8935 15.8023 88.5545 16.1653 88.3085 16.6333C88.0625 17.0953 87.9395 17.6203 87.9395 18.2083ZM109.039 20.9353C108.523 21.7753 107.872 22.4293 107.086 22.8973C106.3 23.3593 105.427 23.5903 104.467 23.5903C103.477 23.5903 102.595 23.3653 101.821 22.9153C101.047 22.4653 100.444 21.8323 100.012 21.0163C99.5859 20.2003 99.3729 19.2643 99.3729 18.2083C99.3729 17.1463 99.5859 16.2073 100.012 15.3913C100.444 14.5693 101.044 13.9333 101.812 13.4833C102.586 13.0333 103.471 12.8083 104.467 12.8083C105.427 12.8083 106.3 13.0363 107.086 13.4923C107.872 13.9483 108.52 14.5933 109.03 15.4273L109.696 9.46031H112.81L111.82 17.9923L112.405 23.3203H109.309L109.039 20.9353ZM102.424 18.2083C102.424 18.7963 102.547 19.3213 102.793 19.7833C103.039 20.2453 103.378 20.6053 103.81 20.8633C104.248 21.1213 104.743 21.2503 105.295 21.2503C105.853 21.2503 106.384 21.1213 106.888 20.8633C107.392 20.6053 107.833 20.2483 108.211 19.7923C108.595 19.3303 108.895 18.8023 109.111 18.2083C108.895 17.6143 108.595 17.0863 108.211 16.6243C107.833 16.1623 107.392 15.8023 106.888 15.5443C106.384 15.2803 105.853 15.1483 105.295 15.1483C104.743 15.1483 104.248 15.2803 103.81 15.5443C103.378 15.8023 103.039 16.1653 102.793 16.6333C102.547 17.0953 102.424 17.6203 102.424 18.2083ZM120.238 23.5903C118.978 23.5903 117.862 23.3653 116.89 22.9153C115.924 22.4653 115.174 21.8353 114.64 21.0253C114.106 20.2093 113.839 19.2703 113.839 18.2083C113.839 17.1403 114.106 16.1983 114.64 15.3823C115.174 14.5663 115.924 13.9333 116.89 13.4833C117.862 13.0333 118.978 12.8083 120.238 12.8083C121.498 12.8083 122.611 13.0333 123.577 13.4833C124.549 13.9333 125.302 14.5663 125.836 15.3823C126.37 16.1983 126.637 17.1403 126.637 18.2083C126.637 19.2703 126.37 20.2093 125.836 21.0253C125.302 21.8353 124.549 22.4653 123.577 22.9153C122.611 23.3653 121.498 23.5903 120.238 23.5903ZM116.881 18.2083C116.881 18.8443 117.016 19.3963 117.286 19.8643C117.556 20.3263 117.943 20.6833 118.447 20.9353C118.951 21.1873 119.548 21.3133 120.238 21.3133C120.928 21.3133 121.522 21.1873 122.02 20.9353C122.524 20.6833 122.911 20.3263 123.181 19.8643C123.451 19.3963 123.586 18.8443 123.586 18.2083C123.586 17.5723 123.451 17.0203 123.181 16.5523C122.911 16.0843 122.524 15.7243 122.02 15.4723C121.516 15.2203 120.922 15.0943 120.238 15.0943C119.548 15.0943 118.951 15.2203 118.447 15.4723C117.943 15.7243 117.556 16.0843 117.286 16.5523C117.016 17.0203 116.881 17.5723 116.881 18.2083ZM127.151 14.0143L129.284 13.3123L130.562 10.3693H132.29V13.0873H136.817V15.3463H132.29V19.0633C132.29 19.6033 132.362 20.0293 132.506 20.3413C132.65 20.6533 132.881 20.8783 133.199 21.0163C133.517 21.1543 133.952 21.2233 134.504 21.2233C135.008 21.2233 135.458 21.1753 135.854 21.0793C136.256 20.9833 136.637 20.8393 136.997 20.6473V22.9963C136.625 23.1583 136.151 23.2963 135.575 23.4103C134.999 23.5303 134.42 23.5903 133.838 23.5903C132.29 23.5903 131.144 23.2303 130.4 22.5103C129.656 21.7903 129.284 20.7853 129.284 19.4953V15.3463H127.151V14.0143ZM158.063 23.3203H154.805L153.527 20.4763H146.039L144.761 23.3203H141.503L147.812 9.82031H151.754L158.063 23.3203ZM152.411 17.9923L149.783 12.1693L147.164 17.9923H152.411ZM161.776 13.0873L162.235 15.8503C162.565 14.9023 163.045 14.1583 163.675 13.6183C164.305 13.0783 165.094 12.8083 166.042 12.8083C166.492 12.8083 166.939 12.8623 167.383 12.9703V15.5623C166.789 15.4243 166.183 15.3553 165.565 15.3553C164.953 15.3553 164.407 15.4843 163.927 15.7423C163.447 16.0003 163.069 16.3963 162.793 16.9303C162.523 17.4583 162.388 18.1153 162.388 18.9013V23.3203H159.382V16.4443L158.734 13.0873H161.776ZM174.227 23.5903C173.015 23.5903 171.929 23.3653 170.969 22.9153C170.009 22.4593 169.259 21.8233 168.719 21.0073C168.179 20.1853 167.909 19.2403 167.909 18.1723C167.909 17.1223 168.167 16.1923 168.683 15.3823C169.199 14.5663 169.916 13.9333 170.834 13.4833C171.752 13.0333 172.79 12.8083 173.948 12.8083C175.112 12.8083 176.126 13.0693 176.99 13.5913C177.854 14.1073 178.517 14.8453 178.979 15.8053C179.447 16.7593 179.681 17.8723 179.681 19.1443H171.131C171.359 19.8403 171.803 20.3773 172.463 20.7553C173.123 21.1333 173.96 21.3223 174.974 21.3223C175.748 21.3223 176.525 21.2113 177.305 20.9893C178.085 20.7673 178.784 20.4553 179.402 20.0533V22.0693C178.724 22.5493 177.935 22.9243 177.035 23.1943C176.141 23.4583 175.205 23.5903 174.227 23.5903ZM176.756 17.1463C176.582 16.4683 176.252 15.9463 175.766 15.5803C175.286 15.2083 174.686 15.0223 173.966 15.0223C173.204 15.0223 172.565 15.2143 172.049 15.5983C171.539 15.9763 171.203 16.4923 171.041 17.1463H176.756ZM183.915 13.0873L184.293 15.3823C184.719 14.5543 185.295 13.9183 186.021 13.4743C186.753 13.0303 187.569 12.8083 188.469 12.8083C189.435 12.8083 190.26 13.0033 190.944 13.3933C191.634 13.7773 192.159 14.3323 192.519 15.0583C192.879 15.7783 193.059 16.6333 193.059 17.6233V23.3203H190.053V18.0823C190.053 17.1703 189.828 16.4743 189.378 15.9943C188.934 15.5143 188.292 15.2743 187.452 15.2743C186.864 15.2743 186.351 15.4033 185.913 15.6613C185.481 15.9133 185.145 16.2733 184.905 16.7413C184.671 17.2033 184.554 17.7433 184.554 18.3613V23.3203H181.548V16.5253L180.9 13.0873H183.915ZM204.293 21.0163C203.783 21.8323 203.138 22.4653 202.358 22.9153C201.584 23.3653 200.723 23.5903 199.775 23.5903C198.785 23.5903 197.903 23.3653 197.129 22.9153C196.355 22.4653 195.752 21.8323 195.32 21.0163C194.894 20.2003 194.681 19.2643 194.681 18.2083C194.681 17.1463 194.894 16.2073 195.32 15.3913C195.752 14.5693 196.352 13.9333 197.12 13.4833C197.894 13.0333 198.779 12.8083 199.775 12.8083C200.723 12.8083 201.584 13.0333 202.358 13.4833C203.138 13.9273 203.786 14.5573 204.302 15.3733L204.563 13.0873H207.677L207.083 18.1993L207.677 23.3203H204.563L204.293 21.0163ZM197.732 18.2083C197.732 18.7963 197.855 19.3213 198.101 19.7833C198.347 20.2453 198.686 20.6053 199.118 20.8633C199.556 21.1213 200.051 21.2503 200.603 21.2503C201.161 21.2503 201.692 21.1213 202.196 20.8633C202.7 20.6053 203.141 20.2483 203.519 19.7923C203.903 19.3303 204.203 18.8023 204.419 18.2083C204.203 17.6143 203.903 17.0863 203.519 16.6243C203.141 16.1623 202.7 15.8023 202.196 15.5443C201.692 15.2803 201.161 15.1483 200.603 15.1483C200.051 15.1483 199.556 15.2803 199.118 15.5443C198.686 15.8023 198.347 16.1653 198.101 16.6333C197.855 17.0953 197.732 17.6203 197.732 18.2083Z" fill="black"/>
<path d="M16.7384 7.70493C19.9247 7.70493 22.5077 6.20398 22.5077 4.35247C22.5077 2.50095 19.9247 1 16.7384 1C13.552 1 10.969 2.50095 10.969 4.35247C10.969 6.20398 13.552 7.70493 16.7384 7.70493Z" fill="white" stroke="black" stroke-opacity="0.9" stroke-width="0.2" stroke-miterlimit="10"/>
<path d="M16.7384 32.9732C19.9247 32.9732 22.5077 31.4723 22.5077 29.6208C22.5077 27.7693 19.9247 26.2683 16.7384 26.2683C13.552 26.2683 10.969 27.7693 10.969 29.6208C10.969 31.4723 13.552 32.9732 16.7384 32.9732Z" fill="white" stroke="black" stroke-opacity="0.9" stroke-width="0.2" stroke-miterlimit="10"/>
<path d="M8.6931 12.3501C10.2863 9.59073 10.278 6.60336 8.67455 5.6776C7.07114 4.75184 4.4798 6.23827 2.88663 8.99763C1.29347 11.757 1.30178 14.7444 2.90519 15.6701C4.5086 16.5959 7.09994 15.1095 8.6931 12.3501Z" fill="#16984E"/>
<path d="M30.584 24.9857C32.1771 22.2264 32.1688 19.239 30.5654 18.3132C28.962 17.3875 26.3707 18.8739 24.7775 21.6333C23.1843 24.3926 23.1926 27.38 24.7961 28.3057C26.3995 29.2315 28.9908 27.7451 30.584 24.9857Z" fill="#16984E"/>
<path d="M8.6726 28.2991C10.276 27.3733 10.2843 24.3859 8.69115 21.6266C7.09799 18.8672 4.50665 17.3808 2.90324 18.3066C1.29982 19.2323 1.29152 22.2197 2.88468 24.9791C4.47785 27.7384 7.06918 29.2248 8.6726 28.2991Z" fill="#E6007A"/>
<path d="M30.564 15.6598C32.1674 14.734 32.1757 11.7467 30.5825 8.98731C28.9893 6.22794 26.398 4.74151 24.7946 5.66727C23.1912 6.59303 23.1829 9.58041 24.776 12.3398C26.3692 15.0991 28.9605 16.5856 30.564 15.6598Z" fill="#E6007A"/>
</svg>
