<svg width="300" height="300" viewBox="0 0 300 300" fill="none" xmlns="http://www.w3.org/2000/svg">
<g clip-path="url(#clip0_150_2)">
<path d="M150 300C232.843 300 300 232.843 300 150C300 67.1573 232.843 0 150 0C67.1573 0 0 67.1573 0 150C0 232.843 67.1573 300 150 300Z" fill="#EEEEEE"/>
<path d="M150 60.9375C162.944 60.9375 173.438 50.4442 173.438 37.5C173.438 24.5558 162.944 14.0625 150 14.0625C137.056 14.0625 126.562 24.5558 126.562 37.5C126.562 50.4442 137.056 60.9375 150 60.9375Z" fill="#FEFF7E"/>
<path d="M150 117.188C162.944 117.188 173.438 106.694 173.438 93.75C173.438 80.8058 162.944 70.3125 150 70.3125C137.056 70.3125 126.562 80.8058 126.562 93.75C126.562 106.694 137.056 117.188 150 117.188Z" fill="#FF210D"/>
<path d="M101.286 89.0625C114.23 89.0625 124.724 78.5692 124.724 65.625C124.724 52.6808 114.23 42.1875 101.286 42.1875C88.342 42.1875 77.8486 52.6808 77.8486 65.625C77.8486 78.5692 88.342 89.0625 101.286 89.0625Z" fill="#B47500"/>
<path d="M52.5723 117.188C65.5164 117.188 76.0098 106.694 76.0098 93.75C76.0098 80.8058 65.5164 70.3125 52.5723 70.3125C39.6281 70.3125 29.1348 80.8058 29.1348 93.75C29.1348 106.694 39.6281 117.188 52.5723 117.188Z" fill="#E5FF0D"/>
<path d="M101.286 145.312C114.23 145.312 124.724 134.819 124.724 121.875C124.724 108.931 114.23 98.4375 101.286 98.4375C88.342 98.4375 77.8486 108.931 77.8486 121.875C77.8486 134.819 88.342 145.312 101.286 145.312Z" fill="#B40010"/>
<path d="M52.5723 173.438C65.5164 173.438 76.0098 162.944 76.0098 150C76.0098 137.056 65.5164 126.562 52.5723 126.562C39.6281 126.562 29.1348 137.056 29.1348 150C29.1348 162.944 39.6281 173.438 52.5723 173.438Z" fill="#004D37"/>
<path d="M52.5723 229.688C65.5164 229.688 76.0098 219.194 76.0098 206.25C76.0098 193.306 65.5164 182.812 52.5723 182.812C39.6281 182.812 29.1348 193.306 29.1348 206.25C29.1348 219.194 39.6281 229.688 52.5723 229.688Z" fill="#FEFF7E"/>
<path d="M101.286 201.562C114.23 201.562 124.724 191.069 124.724 178.125C124.724 165.181 114.23 154.688 101.286 154.688C88.342 154.688 77.8486 165.181 77.8486 178.125C77.8486 191.069 88.342 201.562 101.286 201.562Z" fill="#FF210D"/>
<path d="M101.286 257.812C114.23 257.812 124.724 247.319 124.724 234.375C124.724 221.431 114.23 210.938 101.286 210.938C88.342 210.938 77.8486 221.431 77.8486 234.375C77.8486 247.319 88.342 257.812 101.286 257.812Z" fill="#B47500"/>
<path d="M150 285.938C162.944 285.938 173.438 275.444 173.438 262.5C173.438 249.556 162.944 239.062 150 239.062C137.056 239.062 126.562 249.556 126.562 262.5C126.562 275.444 137.056 285.938 150 285.938Z" fill="#E5FF0D"/>
<path d="M150 229.688C162.944 229.688 173.438 219.194 173.438 206.25C173.438 193.306 162.944 182.812 150 182.812C137.056 182.812 126.562 193.306 126.562 206.25C126.562 219.194 137.056 229.688 150 229.688Z" fill="#B40010"/>
<path d="M198.714 257.812C211.658 257.812 222.151 247.319 222.151 234.375C222.151 221.431 211.658 210.938 198.714 210.938C185.77 210.938 175.276 221.431 175.276 234.375C175.276 247.319 185.77 257.812 198.714 257.812Z" fill="#004D37"/>
<path d="M247.428 229.688C260.372 229.688 270.865 219.194 270.865 206.25C270.865 193.306 260.372 182.812 247.428 182.812C234.484 182.812 223.99 193.306 223.99 206.25C223.99 219.194 234.484 229.688 247.428 229.688Z" fill="#FEFF7E"/>
<path d="M198.714 201.562C211.658 201.562 222.151 191.069 222.151 178.125C222.151 165.181 211.658 154.688 198.714 154.688C185.77 154.688 175.276 165.181 175.276 178.125C175.276 191.069 185.77 201.562 198.714 201.562Z" fill="#FF210D"/>
<path d="M247.428 173.438C260.372 173.438 270.865 162.944 270.865 150C270.865 137.056 260.372 126.562 247.428 126.562C234.484 126.562 223.99 137.056 223.99 150C223.99 162.944 234.484 173.438 247.428 173.438Z" fill="#B47500"/>
<path d="M247.428 117.188C260.372 117.188 270.865 106.694 270.865 93.75C270.865 80.8058 260.372 70.3125 247.428 70.3125C234.484 70.3125 223.99 80.8058 223.99 93.75C223.99 106.694 234.484 117.188 247.428 117.188Z" fill="#E5FF0D"/>
<path d="M198.714 145.312C211.658 145.312 222.151 134.819 222.151 121.875C222.151 108.931 211.658 98.4375 198.714 98.4375C185.77 98.4375 175.276 108.931 175.276 121.875C175.276 134.819 185.77 145.312 198.714 145.312Z" fill="#B40010"/>
<path d="M198.714 89.0625C211.658 89.0625 222.151 78.5692 222.151 65.625C222.151 52.6808 211.658 42.1875 198.714 42.1875C185.77 42.1875 175.276 52.6808 175.276 65.625C175.276 78.5692 185.77 89.0625 198.714 89.0625Z" fill="#004D37"/>
<path d="M150 173.438C162.944 173.438 173.438 162.944 173.438 150C173.438 137.056 162.944 126.562 150 126.562C137.056 126.562 126.562 137.056 126.562 150C126.562 162.944 137.056 173.438 150 173.438Z" fill="#FFEB7E"/>
</g>
<defs>
<clipPath id="clip0_150_2">
<rect width="300" height="300" fill="white"/>
</clipPath>
</defs>
</svg>
