<svg width="1789" height="260" viewBox="0 0 1789 260" fill="none" xmlns="http://www.w3.org/2000/svg">
<path d="M408.905 72.5C417.939 72.5 425.793 74.0913 432.467 77.274C439.191 80.4567 444.35 84.9483 447.944 90.749C451.537 96.4983 453.334 103.146 453.334 110.692C453.334 118.238 451.537 124.886 447.944 130.635C444.35 136.384 439.191 140.85 432.467 144.033C425.742 147.216 417.888 148.807 408.905 148.807H372.022V188H345.919V72.5H408.905ZM407.519 127.247C413.576 127.247 418.299 125.784 421.687 122.858C425.126 119.932 426.846 115.877 426.846 110.692C426.846 105.507 425.126 101.452 421.687 98.526C418.299 95.5487 413.576 94.06 407.519 94.06H372.022V127.247H407.519ZM514.58 190.31C503.8 190.31 494.252 188.385 485.936 184.535C477.671 180.685 471.254 175.295 466.686 168.365C462.117 161.384 459.833 153.35 459.833 144.264C459.833 135.127 462.117 127.067 466.686 120.086C471.254 113.105 477.671 107.689 485.936 103.839C494.252 99.989 503.8 98.064 514.58 98.064C525.36 98.064 534.882 99.989 543.147 103.839C551.463 107.689 557.905 113.105 562.474 120.086C567.043 127.067 569.327 135.127 569.327 144.264C569.327 153.35 567.043 161.384 562.474 168.365C557.905 175.295 551.463 180.685 543.147 184.535C534.882 188.385 525.36 190.31 514.58 190.31ZM485.859 144.264C485.859 149.705 487.014 154.428 489.324 158.432C491.634 162.385 494.945 165.439 499.257 167.595C503.569 169.751 508.676 170.829 514.58 170.829C520.483 170.829 525.565 169.751 529.826 167.595C534.138 165.439 537.449 162.385 539.759 158.432C542.069 154.428 543.224 149.705 543.224 144.264C543.224 138.823 542.069 134.1 539.759 130.096C537.449 126.092 534.138 123.012 529.826 120.856C525.514 118.7 520.432 117.622 514.58 117.622C508.676 117.622 503.569 118.7 499.257 120.856C494.945 123.012 491.634 126.092 489.324 130.096C487.014 134.1 485.859 138.823 485.859 144.264ZM609.955 69.42V188H584.16V69.42H609.955ZM629.277 69.42H655.072V155.352L699.886 100.451H727.991L697.422 136.025L730.455 188H700.964L681.021 155.044L652.685 188H629.277V69.42ZM813.08 168.288C808.717 175.269 803.198 180.685 796.525 184.535C789.903 188.385 782.537 190.31 774.426 190.31C765.956 190.31 758.41 188.385 751.788 184.535C745.166 180.685 740.007 175.269 736.311 168.288C732.666 161.307 730.844 153.299 730.844 144.264C730.844 135.178 732.666 127.144 736.311 120.163C740.007 113.13 745.14 107.689 751.711 103.839C758.333 99.989 765.905 98.064 774.426 98.064C782.537 98.064 789.903 99.989 796.525 103.839C803.198 107.638 808.742 113.028 813.157 120.009L815.39 100.451H842.032L836.95 144.187L842.032 188H815.39L813.08 168.288ZM756.947 144.264C756.947 149.295 757.999 153.786 760.104 157.739C762.209 161.692 765.109 164.772 768.805 166.979C772.552 169.186 776.787 170.29 781.51 170.29C786.284 170.29 790.827 169.186 795.139 166.979C799.451 164.772 803.224 161.717 806.458 157.816C809.743 153.863 812.31 149.346 814.158 144.264C812.31 139.182 809.743 134.665 806.458 130.712C803.224 126.759 799.451 123.679 795.139 121.472C790.827 119.213 786.284 118.084 781.51 118.084C776.787 118.084 772.552 119.213 768.805 121.472C765.109 123.679 762.209 126.785 760.104 130.789C757.999 134.742 756.947 139.233 756.947 144.264ZM937.464 167.595C933.049 174.782 927.479 180.377 920.755 184.381C914.03 188.334 906.561 190.31 898.348 190.31C889.878 190.31 882.332 188.385 875.71 184.535C869.088 180.685 863.929 175.269 860.233 168.288C856.588 161.307 854.766 153.299 854.766 144.264C854.766 135.178 856.588 127.144 860.233 120.163C863.929 113.13 869.062 107.689 875.633 103.839C882.255 99.989 889.826 98.064 898.348 98.064C906.561 98.064 914.03 100.015 920.755 103.916C927.479 107.817 933.023 113.336 937.387 120.471L943.085 69.42H969.727L961.257 142.416L966.262 188H939.774L937.464 167.595ZM880.869 144.264C880.869 149.295 881.921 153.786 884.026 157.739C886.13 161.692 889.031 164.772 892.727 166.979C896.474 169.186 900.709 170.29 905.432 170.29C910.206 170.29 914.749 169.186 919.061 166.979C923.373 164.772 927.146 161.717 930.38 157.816C933.665 153.863 936.232 149.346 938.08 144.264C936.232 139.182 933.665 134.665 930.38 130.712C927.146 126.759 923.373 123.679 919.061 121.472C914.749 119.213 910.206 118.084 905.432 118.084C900.709 118.084 896.474 119.213 892.727 121.472C889.031 123.679 886.13 126.785 884.026 130.789C881.921 134.742 880.869 139.233 880.869 144.264ZM1033.28 190.31C1022.5 190.31 1012.95 188.385 1004.63 184.535C996.368 180.685 989.952 175.295 985.383 168.365C980.814 161.384 978.53 153.35 978.53 144.264C978.53 135.127 980.814 127.067 985.383 120.086C989.952 113.105 996.368 107.689 1004.63 103.839C1012.95 99.989 1022.5 98.064 1033.28 98.064C1044.06 98.064 1053.58 99.989 1061.84 103.839C1070.16 107.689 1076.6 113.105 1081.17 120.086C1085.74 127.067 1088.02 135.127 1088.02 144.264C1088.02 153.35 1085.74 161.384 1081.17 168.365C1076.6 175.295 1070.16 180.685 1061.84 184.535C1053.58 188.385 1044.06 190.31 1033.28 190.31ZM1004.56 144.264C1004.56 149.705 1005.71 154.428 1008.02 158.432C1010.33 162.385 1013.64 165.439 1017.95 167.595C1022.27 169.751 1027.37 170.829 1033.28 170.829C1039.18 170.829 1044.26 169.751 1048.52 167.595C1052.84 165.439 1056.15 162.385 1058.46 158.432C1060.77 154.428 1061.92 149.705 1061.92 144.264C1061.92 138.823 1060.77 134.1 1058.46 130.096C1056.15 126.092 1052.84 123.012 1048.52 120.856C1044.21 118.7 1039.13 117.622 1033.28 117.622C1027.37 117.622 1022.27 118.7 1017.95 120.856C1013.64 123.012 1010.33 126.092 1008.02 130.096C1005.71 134.1 1004.56 138.823 1004.56 144.264ZM1092.43 108.382L1110.67 102.376L1121.61 77.197H1136.39V100.451H1175.12V119.778H1136.39V151.579C1136.39 156.199 1137.01 159.844 1138.24 162.513C1139.47 165.182 1141.45 167.107 1144.17 168.288C1146.89 169.469 1150.61 170.059 1155.33 170.059C1159.65 170.059 1163.5 169.648 1166.88 168.827C1170.32 168.006 1173.58 166.774 1176.66 165.131V185.228C1173.48 186.614 1169.43 187.795 1164.5 188.77C1159.57 189.797 1154.62 190.31 1149.64 190.31C1136.39 190.31 1126.59 187.23 1120.22 181.07C1113.86 174.91 1110.67 166.312 1110.67 155.275V119.778H1092.43V108.382ZM1356.89 188H1329.02L1318.09 163.668H1254.02L1243.09 188H1215.21L1269.19 72.5H1302.92L1356.89 188ZM1308.54 142.416L1286.05 92.597L1263.65 142.416H1308.54ZM1388.66 100.451L1392.59 124.09C1395.41 115.979 1399.52 109.614 1404.91 104.994C1410.3 100.374 1417.05 98.064 1425.16 98.064C1429.01 98.064 1432.83 98.526 1436.63 99.45V121.626C1431.55 120.445 1426.37 119.855 1421.08 119.855C1415.84 119.855 1411.17 120.959 1407.06 123.166C1402.96 125.373 1399.72 128.761 1397.36 133.33C1395.05 137.847 1393.9 143.468 1393.9 150.193V188H1368.18V129.172L1362.63 100.451H1388.66ZM1495.19 190.31C1484.82 190.31 1475.52 188.385 1467.31 184.535C1459.1 180.634 1452.68 175.192 1448.06 168.211C1443.44 161.178 1441.13 153.093 1441.13 143.956C1441.13 134.973 1443.34 127.016 1447.75 120.086C1452.17 113.105 1458.3 107.689 1466.16 103.839C1474.01 99.989 1482.89 98.064 1492.8 98.064C1502.76 98.064 1511.43 100.297 1518.82 104.763C1526.22 109.178 1531.89 115.492 1535.84 123.705C1539.85 131.867 1541.85 141.389 1541.85 152.272H1468.7C1470.65 158.227 1474.45 162.821 1480.09 166.055C1485.74 169.289 1492.9 170.906 1501.58 170.906C1508.2 170.906 1514.85 169.956 1521.52 168.057C1528.19 166.158 1534.17 163.488 1539.46 160.049V177.297C1533.66 181.404 1526.91 184.612 1519.21 186.922C1511.56 189.181 1503.55 190.31 1495.19 190.31ZM1516.82 135.178C1515.33 129.377 1512.51 124.911 1508.35 121.78C1504.25 118.597 1499.11 117.006 1492.95 117.006C1486.43 117.006 1480.97 118.649 1476.55 121.934C1472.19 125.168 1469.31 129.583 1467.93 135.178H1516.82ZM1578.07 100.451L1581.31 120.086C1584.95 113.002 1589.88 107.561 1596.09 103.762C1602.35 99.9633 1609.33 98.064 1617.03 98.064C1625.3 98.064 1632.36 99.7323 1638.21 103.069C1644.11 106.354 1648.6 111.103 1651.68 117.314C1654.76 123.474 1656.3 130.789 1656.3 139.259V188H1630.59V143.186C1630.59 135.383 1628.66 129.429 1624.81 125.322C1621.01 121.215 1615.52 119.162 1608.33 119.162C1603.3 119.162 1598.91 120.266 1595.17 122.473C1591.47 124.629 1588.6 127.709 1586.54 131.713C1584.54 135.666 1583.54 140.286 1583.54 145.573V188H1557.82V129.865L1552.28 100.451H1578.07ZM1752.42 168.288C1748.06 175.269 1742.54 180.685 1735.86 184.535C1729.24 188.385 1721.88 190.31 1713.77 190.31C1705.3 190.31 1697.75 188.385 1691.13 184.535C1684.51 180.685 1679.35 175.269 1675.65 168.288C1672.01 161.307 1670.18 153.299 1670.18 144.264C1670.18 135.178 1672.01 127.144 1675.65 120.163C1679.35 113.13 1684.48 107.689 1691.05 103.839C1697.67 99.989 1705.24 98.064 1713.77 98.064C1721.88 98.064 1729.24 99.989 1735.86 103.839C1742.54 107.638 1748.08 113.028 1752.5 120.009L1754.73 100.451H1781.37L1776.29 144.187L1781.37 188H1754.73L1752.42 168.288ZM1696.29 144.264C1696.29 149.295 1697.34 153.786 1699.44 157.739C1701.55 161.692 1704.45 164.772 1708.14 166.979C1711.89 169.186 1716.13 170.29 1720.85 170.29C1725.62 170.29 1730.17 169.186 1734.48 166.979C1738.79 164.772 1742.56 161.717 1745.8 157.816C1749.08 153.863 1751.65 149.346 1753.5 144.264C1751.65 139.182 1749.08 134.665 1745.8 130.712C1742.56 126.759 1738.79 123.679 1734.48 121.472C1730.17 119.213 1725.62 118.084 1720.85 118.084C1716.13 118.084 1711.89 119.213 1708.14 121.472C1704.45 123.679 1701.55 126.785 1699.44 130.789C1697.34 134.742 1696.29 139.233 1696.29 144.264Z" fill="white"/>
<path d="M136.114 54.5233C162.025 54.5233 183.03 42.3178 183.03 27.2616C183.03 12.2055 162.025 0 136.114 0C110.203 0 89.1987 12.2055 89.1987 27.2616C89.1987 42.3178 110.203 54.5233 136.114 54.5233Z" fill="white"/>
<path d="M136.114 260C162.025 260 183.03 247.795 183.03 232.738C183.03 217.682 162.025 205.477 136.114 205.477C110.203 205.477 89.1987 217.682 89.1987 232.738C89.1987 247.795 110.203 260 136.114 260Z" fill="white"/>
<path d="M70.692 92.2967C83.6473 69.8581 83.5797 45.5653 70.5411 38.0372C57.5024 30.5091 36.4301 42.5965 23.4748 65.0351C10.5195 87.4737 10.587 111.767 23.6257 119.295C36.6643 126.823 57.7366 114.735 70.692 92.2967Z" fill="#16984E"/>
<path d="M248.703 195.048C261.658 172.609 261.59 148.316 248.552 140.788C235.513 133.26 214.441 145.347 201.486 167.786C188.53 190.225 188.598 214.518 201.636 222.046C214.675 229.574 235.747 217.486 248.703 195.048Z" fill="#16984E"/>
<path d="M70.524 221.991C83.5626 214.463 83.6302 190.17 70.6749 167.732C57.7195 145.293 36.6472 133.206 23.6086 140.734C10.5699 148.262 10.5024 172.555 23.4577 194.993C36.413 217.432 57.4853 229.519 70.524 221.991Z" fill="#E6007A"/>
<path d="M248.541 119.211C261.579 111.683 261.647 87.3902 248.691 64.9516C235.736 42.5129 214.664 30.4256 201.625 37.9537C188.587 45.4817 188.519 69.7746 201.474 92.2132C214.43 114.652 235.502 126.739 248.541 119.211Z" fill="#E6007A"/>
</svg>
