<svg width="1080" height="1080" viewBox="0 0 1080 1080" fill="none" xmlns="http://www.w3.org/2000/svg">
<rect width="1080" height="1080" rx="100" fill="black"/>
<path d="M446.054 960.285L442.573 938.75H471.011C473.725 938.75 476.036 939.183 477.944 940.048C479.871 940.894 481.327 942.123 482.31 943.735C483.313 945.348 483.814 947.266 483.814 949.488C483.814 951.691 483.224 953.716 482.044 955.565C480.864 957.414 479.045 958.83 476.587 959.813C479.989 960.482 482.536 961.799 484.227 963.766C485.919 965.713 486.764 968.093 486.764 970.905C486.764 973.285 486.204 975.389 485.083 977.218C483.962 979.027 482.29 980.443 480.068 981.466C477.865 982.489 475.2 983 472.073 983H442.573L446.054 960.285ZM471.188 976.746C473.627 976.746 475.525 976.185 476.882 975.064C478.239 973.943 478.917 972.341 478.917 970.256C478.917 968.053 478.111 966.342 476.498 965.123C474.886 963.904 472.545 963.294 469.477 963.294H453.075L451.04 976.746H471.188ZM453.075 957.276H468.71C470.126 957.276 471.375 957.01 472.457 956.479C473.558 955.948 474.414 955.181 475.023 954.178C475.653 953.156 475.967 951.946 475.967 950.55C475.967 948.878 475.377 947.541 474.197 946.538C473.037 945.515 471.405 945.004 469.3 945.004H451.069L453.075 957.276ZM501.849 976.156H531.703V983H494.061V938.75H501.849V976.156ZM558.037 983.826C553.062 983.826 548.646 982.872 544.792 980.964C540.957 979.037 537.977 976.333 535.853 972.852C533.729 969.371 532.667 965.379 532.667 960.875C532.667 956.371 533.729 952.379 535.853 948.898C537.977 945.417 540.957 942.723 544.792 940.815C548.646 938.888 553.062 937.924 558.037 937.924C563.013 937.924 567.418 938.888 571.253 940.815C575.108 942.723 578.097 945.417 580.221 948.898C582.345 952.379 583.407 956.371 583.407 960.875C583.407 965.379 582.345 969.371 580.221 972.852C578.097 976.333 575.108 979.037 571.253 980.964C567.418 982.872 563.013 983.826 558.037 983.826ZM540.573 960.875C540.573 964.12 541.281 966.952 542.697 969.371C544.133 971.77 546.159 973.619 548.774 974.917C551.41 976.215 554.497 976.864 558.037 976.864C561.577 976.864 564.655 976.215 567.271 974.917C569.906 973.619 571.932 971.77 573.348 969.371C574.783 966.952 575.501 964.12 575.501 960.875C575.501 957.63 574.783 954.808 573.348 952.408C571.932 949.989 569.906 948.131 567.271 946.833C564.655 945.535 561.577 944.886 558.037 944.886C554.497 944.886 551.41 945.535 548.774 946.833C546.159 948.131 544.133 949.989 542.697 952.408C541.281 954.808 540.573 957.63 540.573 960.875ZM615.695 961.229H638.056V983H632.274L631.861 974.917C629.992 977.69 627.465 979.873 624.279 981.466C621.093 983.039 617.406 983.826 613.217 983.826C608.536 983.826 604.327 982.892 600.591 981.023C596.874 979.155 593.953 976.49 591.829 973.029C589.725 969.548 588.673 965.497 588.673 960.875C588.673 956.253 589.735 952.212 591.859 948.75C594.002 945.269 596.962 942.595 600.738 940.726C604.514 938.858 608.811 937.924 613.63 937.924C618.035 937.924 621.958 938.652 625.4 940.107C628.842 941.562 631.605 943.578 633.69 946.154C635.794 948.731 637.092 951.671 637.584 954.975H629.678C629.245 952.89 628.311 951.081 626.875 949.547C625.459 948.013 623.61 946.833 621.329 946.007C619.048 945.181 616.462 944.768 613.571 944.768C610.109 944.768 607.1 945.407 604.544 946.685C602.007 947.964 600.04 949.812 598.644 952.231C597.267 954.65 596.579 957.532 596.579 960.875C596.579 964.238 597.296 967.149 598.732 969.607C600.168 972.046 602.203 973.914 604.839 975.212C607.494 976.51 610.601 977.159 614.161 977.159C616.993 977.159 619.559 976.756 621.86 975.949C624.161 975.123 626.098 973.963 627.672 972.468C629.245 970.954 630.376 969.174 631.064 967.129H615.695V961.229Z" fill="white"/>
<line x1="389" y1="960.5" x2="93" y2="960.5" stroke="white"/>
<line x1="987" y1="960.5" x2="691" y2="960.5" stroke="white"/>
<path d="M539.948 200.88C573.632 200.88 600.938 185.013 600.938 165.44C600.938 145.867 573.632 130 539.948 130C506.264 130 478.958 145.867 478.958 165.44C478.958 185.013 506.264 200.88 539.948 200.88Z" fill="white"/>
<path d="M539.948 468C573.632 468 600.938 452.133 600.938 432.56C600.938 412.987 573.632 397.12 539.948 397.12C506.264 397.12 478.958 412.987 478.958 432.56C478.958 452.133 506.264 468 539.948 468Z" fill="white"/>
<path d="M454.9 249.986C471.742 220.816 471.654 189.235 454.704 179.448C437.753 169.662 410.359 185.375 393.517 214.546C376.675 243.716 376.763 275.297 393.713 285.083C410.664 294.87 438.058 279.156 454.9 249.986Z" fill="#16984E"/>
<path d="M686.314 383.562C703.156 354.392 703.068 322.811 686.118 313.024C669.167 303.238 641.773 318.951 624.932 348.122C608.09 377.292 608.177 408.872 625.128 418.659C642.078 428.446 669.472 412.732 686.314 383.562Z" fill="#16984E"/>
<path d="M454.681 418.589C471.631 408.802 471.719 377.221 454.877 348.051C438.035 318.881 410.641 303.167 393.691 312.954C376.741 322.74 376.653 354.321 393.495 383.491C410.337 412.662 437.731 428.375 454.681 418.589Z" fill="#E6007A"/>
<path d="M686.102 284.974C703.052 275.188 703.14 243.607 686.298 214.437C669.456 185.267 642.062 169.553 625.112 179.34C608.162 189.126 608.074 220.707 624.916 249.877C641.758 279.047 669.152 294.761 686.102 284.974Z" fill="#E6007A"/>
<path d="M211.862 566.25C220.368 566.25 227.763 567.748 234.047 570.745C240.378 573.742 245.236 577.971 248.619 583.432C252.002 588.846 253.694 595.105 253.694 602.21C253.694 609.315 252.002 615.574 248.619 620.987C245.236 626.401 240.378 630.606 234.047 633.602C227.715 636.599 220.32 638.097 211.862 638.097H177.134V675H152.557V566.25H211.862ZM210.557 617.797C216.26 617.797 220.707 616.42 223.897 613.665C227.135 610.91 228.754 607.092 228.754 602.21C228.754 597.328 227.135 593.51 223.897 590.755C220.707 587.952 216.26 586.55 210.557 586.55H177.134V617.797H210.557ZM311.361 677.175C301.211 677.175 292.221 675.363 284.391 671.737C276.609 668.112 270.568 663.037 266.266 656.512C261.964 649.939 259.814 642.375 259.814 633.82C259.814 625.217 261.964 617.628 266.266 611.055C270.568 604.482 276.609 599.382 284.391 595.757C292.221 592.132 301.211 590.32 311.361 590.32C321.511 590.32 330.477 592.132 338.259 595.757C346.089 599.382 352.154 604.482 356.456 611.055C360.758 617.628 362.909 625.217 362.909 633.82C362.909 642.375 360.758 649.939 356.456 656.512C352.154 663.037 346.089 668.112 338.259 671.737C330.477 675.363 321.511 677.175 311.361 677.175ZM284.319 633.82C284.319 638.943 285.406 643.39 287.581 647.16C289.756 650.882 292.874 653.757 296.934 655.787C300.994 657.817 305.803 658.832 311.361 658.832C316.919 658.832 321.704 657.817 325.716 655.787C329.776 653.757 332.894 650.882 335.069 647.16C337.244 643.39 338.331 638.943 338.331 633.82C338.331 628.697 337.244 624.25 335.069 620.48C332.894 616.71 329.776 613.81 325.716 611.78C321.656 609.75 316.871 608.735 311.361 608.735C305.803 608.735 300.994 609.75 296.934 611.78C292.874 613.81 289.756 616.71 287.581 620.48C285.406 624.25 284.319 628.697 284.319 633.82ZM401.163 563.35V675H376.875V563.35H401.163ZM419.355 563.35H443.643V644.26L485.838 592.567H512.3L483.518 626.062L514.62 675H486.853L468.075 643.97L441.395 675H419.355V563.35ZM592.416 656.44C588.308 663.013 583.112 668.112 576.829 671.737C570.594 675.363 563.658 677.175 556.021 677.175C548.046 677.175 540.941 675.363 534.706 671.737C528.471 668.112 523.614 663.013 520.134 656.44C516.702 649.867 514.986 642.327 514.986 633.82C514.986 625.265 516.702 617.701 520.134 611.127C523.614 604.506 528.447 599.382 534.634 595.757C540.869 592.132 547.998 590.32 556.021 590.32C563.658 590.32 570.594 592.132 576.829 595.757C583.112 599.334 588.332 604.409 592.489 610.982L594.591 592.567H619.676L614.891 633.747L619.676 675H594.591L592.416 656.44ZM539.564 633.82C539.564 638.557 540.555 642.786 542.536 646.507C544.518 650.229 547.249 653.129 550.729 655.207C554.257 657.286 558.245 658.325 562.691 658.325C567.186 658.325 571.464 657.286 575.524 655.207C579.584 653.129 583.136 650.253 586.181 646.58C589.275 642.858 591.691 638.605 593.431 633.82C591.691 629.035 589.275 624.782 586.181 621.06C583.136 617.338 579.584 614.438 575.524 612.36C571.464 610.233 567.186 609.17 562.691 609.17C558.245 609.17 554.257 610.233 550.729 612.36C547.249 614.438 544.518 617.362 542.536 621.132C540.555 624.854 539.564 629.083 539.564 633.82ZM709.531 655.787C705.374 662.554 700.13 667.822 693.799 671.592C687.467 675.314 680.434 677.175 672.701 677.175C664.726 677.175 657.621 675.363 651.386 671.737C645.151 668.112 640.294 663.013 636.814 656.44C633.382 649.867 631.666 642.327 631.666 633.82C631.666 625.265 633.382 617.701 636.814 611.127C640.294 604.506 645.127 599.382 651.314 595.757C657.549 592.132 664.678 590.32 672.701 590.32C680.434 590.32 687.467 592.157 693.799 595.83C700.13 599.503 705.35 604.699 709.459 611.417L714.824 563.35H739.909L731.934 632.08L736.646 675H711.706L709.531 655.787ZM656.244 633.82C656.244 638.557 657.234 642.786 659.216 646.507C661.198 650.229 663.929 653.129 667.409 655.207C670.937 657.286 674.924 658.325 679.371 658.325C683.866 658.325 688.144 657.286 692.204 655.207C696.264 653.129 699.816 650.253 702.861 646.58C705.954 642.858 708.371 638.605 710.111 633.82C708.371 629.035 705.954 624.782 702.861 621.06C699.816 617.338 696.264 614.438 692.204 612.36C688.144 610.233 683.866 609.17 679.371 609.17C674.924 609.17 670.937 610.233 667.409 612.36C663.929 614.438 661.198 617.362 659.216 621.132C657.234 624.854 656.244 629.083 656.244 633.82ZM799.745 677.175C789.595 677.175 780.605 675.363 772.775 671.737C764.993 668.112 758.952 663.037 754.65 656.512C750.348 649.939 748.197 642.375 748.197 633.82C748.197 625.217 750.348 617.628 754.65 611.055C758.952 604.482 764.993 599.382 772.775 595.757C780.605 592.132 789.595 590.32 799.745 590.32C809.895 590.32 818.861 592.132 826.642 595.757C834.472 599.382 840.538 604.482 844.84 611.055C849.142 617.628 851.292 625.217 851.292 633.82C851.292 642.375 849.142 649.939 844.84 656.512C840.538 663.037 834.472 668.112 826.642 671.737C818.861 675.363 809.895 677.175 799.745 677.175ZM772.702 633.82C772.702 638.943 773.79 643.39 775.965 647.16C778.14 650.882 781.257 653.757 785.317 655.787C789.377 657.817 794.187 658.832 799.745 658.832C805.303 658.832 810.088 657.817 814.1 655.787C818.16 653.757 821.277 650.882 823.452 647.16C825.627 643.39 826.715 638.943 826.715 633.82C826.715 628.697 825.627 624.25 823.452 620.48C821.277 616.71 818.16 613.81 814.1 611.78C810.04 609.75 805.255 608.735 799.745 608.735C794.187 608.735 789.377 609.75 785.317 611.78C781.257 613.81 778.14 616.71 775.965 620.48C773.79 624.25 772.702 628.697 772.702 633.82ZM855.436 600.035L872.619 594.38L882.914 570.672H896.834V592.567H933.301V610.765H896.834V640.707C896.834 645.057 897.414 648.489 898.574 651.002C899.734 653.516 901.595 655.328 904.156 656.44C906.718 657.552 910.222 658.107 914.669 658.107C918.729 658.107 922.354 657.721 925.544 656.947C928.782 656.174 931.851 655.014 934.751 653.467V672.39C931.755 673.695 927.936 674.807 923.296 675.725C918.656 676.692 913.992 677.175 909.304 677.175C896.834 677.175 887.602 674.275 881.609 668.475C875.615 662.675 872.619 654.579 872.619 644.187V610.765H855.436V600.035ZM413.976 806H396.238L389.28 790.516H348.512L341.554 806H323.816L358.165 732.5H379.627L413.976 806ZM383.204 776.992L368.896 745.289L354.637 776.992H383.204ZM461.725 765.134C465.514 765.134 468.487 764.268 470.643 762.537C472.831 760.806 473.926 758.421 473.926 755.383C473.926 752.345 472.831 749.96 470.643 748.229C468.487 746.498 465.514 745.632 461.725 745.632H438.499V765.134H461.725ZM421.888 732.5H463.734C469.058 732.5 473.762 733.464 477.846 735.391C481.929 737.286 485.098 739.964 487.352 743.427C489.606 746.89 490.733 750.875 490.733 755.383C490.733 759.238 489.883 762.717 488.185 765.82C486.486 768.923 484.069 771.488 480.933 773.513C477.829 775.538 474.187 776.894 470.006 777.58L492.938 806H473.436L451.288 778.07H438.499V806H421.888V732.5ZM563.995 775.62H521.561L518.915 792.182H567.033V806H500.834L506.567 769.25L500.834 732.5H566.543V746.318H518.915L521.561 762.88H563.995V775.62ZM579.702 732.5H601.262L642.03 787.233V732.5H658.151V806H637.13L595.823 750.287V806H579.702V732.5ZM756.21 806H738.472L731.514 790.516H690.746L683.788 806H666.05L700.399 732.5H721.861L756.21 806ZM725.438 776.992L711.13 745.289L696.871 776.992H725.438Z" fill="white"/>
</svg>
